<mxfile host="65bd71144e">
    <diagram id="Kv7Jm7UovbbUuPAI4cDx" name="Seite-1">
        <mxGraphModel dx="817" dy="500" grid="1" gridSize="10" guides="1" tooltips="1" connect="1" arrows="1" fold="1" page="1" pageScale="1" pageWidth="827" pageHeight="1169" math="0" shadow="0">
            <root>
                <mxCell id="0"/>
                <mxCell id="1" parent="0"/>
                <mxCell id="25" value="" style="rounded=0;whiteSpace=wrap;html=1;fillColor=#f5f5f5;fontColor=#333333;strokeColor=#666666;" parent="1" vertex="1">
                    <mxGeometry width="990" height="750" as="geometry"/>
                </mxCell>
                <mxCell id="29" value="Azure Resource Group" style="rounded=0;whiteSpace=wrap;html=1;verticalAlign=top;" parent="1" vertex="1">
                    <mxGeometry x="280" y="522" width="410" height="190" as="geometry"/>
                </mxCell>
                <mxCell id="3" value="Azure DevOps" style="rounded=0;whiteSpace=wrap;html=1;verticalAlign=top;" parent="1" vertex="1">
                    <mxGeometry x="30" y="52" width="190" height="660" as="geometry"/>
                </mxCell>
                <mxCell id="4" value="Azure Resource Group" style="rounded=0;whiteSpace=wrap;html=1;verticalAlign=top;" parent="1" vertex="1">
                    <mxGeometry x="280" y="52" width="410" height="400" as="geometry"/>
                </mxCell>
                <mxCell id="22" style="edgeStyle=orthogonalEdgeStyle;rounded=0;orthogonalLoop=1;jettySize=auto;html=1;strokeColor=#3333FF;fontColor=#3333FF;" parent="1" source="5" target="6" edge="1">
                    <mxGeometry relative="1" as="geometry"/>
                </mxCell>
                <mxCell id="23" value="Infrastructure as Code" style="edgeLabel;html=1;align=center;verticalAlign=middle;resizable=0;points=[];fontColor=#3333FF;" parent="22" vertex="1" connectable="0">
                    <mxGeometry x="0.0316" y="2" relative="1" as="geometry">
                        <mxPoint as="offset"/>
                    </mxGeometry>
                </mxCell>
                <mxCell id="5" value="Code" style="shape=image;verticalLabelPosition=bottom;labelBackgroundColor=default;verticalAlign=top;aspect=fixed;imageAspect=0;image=data:image/png,iVBORw0KGgoAAAANSUhEUgAAAMAAAADACAYAAABS3GwHAAAACXBIWXMAABYlAAAWJQFJUiTwAAAAAXNSR0IArs4c6QAAAARnQU1BAACxjwv8YQUAAEq/SURBVHgB7b1psCfHcR+Y+YC5B8AcBDCkSAA8QIAnAJESCZICCMokvZJ2wbBke7XrNRWxG+EN2R9kf/B+WMeK3P0krx0Ww3SEHOGQRcu2ZEu2ScumJFIUwQPgTQxJSCJ4ACBIgxhgBoNjBgPM4P3TXd11/DIrq7v/7817eBN8OfN/3V2VlZWVlZmVVV3dzXSBwWfeTG+n1ZX3EMvtTHQNbcNWgKMkfPTcucX7bztKD9AFBEwXCHzyRjqwY8fKr3aK/yu0DVsXhH89GsLjdAHABWEAvfLv5E92pzfSNlwIcPTcWbntQjCCi+kCgIs6zy8i28p/4cCN/WhNi79LWxy2/AjQef9rLtrB99M2XHCwKt0o8GW6g7YwbPkRYGXHyvuEhLbhwoMVpvd0hztoC8OWN4CFyA20DRcmMN/ezYq39KLFljcA2Z74XrggW3+Z+gIYAWgbtmHDYNsAtuFHGra+AdA2bMPGwQUzAmwPBBcWXChbDLa8AaxuG8AFCdsGcJ4gjADbyn9hwoVgBFveAJ7b1v5t2EDYNoBt+JGGTR+l/uJt9HZZrLxnheT2rvZrpvCffI624QKGS+e52KOdKh6V1cX7X/X5zX2eYNMM4O6304F951Z+dbHkrfFtA7iw4dKlYwz+9TM7Fu+/6Y7N2Uq9KQYQlH/PubXt5982gAsbLl1bkH30zA65bTOMYFPmAHs6zy+0tv3821OACxvW2H83Bp3ZjOcJNnwEuPvNdM2ui9a+n397BLiw4dJ1uNhVltte99mN3U694SPADl55H8k6/Pj2EHBhwzr6j2XjnyfYcANglhvWo8Pb+n9hw3r6j2njnydYoY2H7f3827BWuIY2GDZ8BFjvdmbZHgIuaNjq29k33ADW2/5t/b+wYav338YbwHpHANqGCxm2+gi+8SEQrQ+2nwi7sGGrP9C0PQJsw4bC9ghA64PtSfCFDT/yI8B6Q5jtEOjChh/5VaDFdgj0Iw1b3QCW3gt0/y/d+PYVXnkPz9zPf+pk+Cu5IomVDsd0VkAgLeRLnxKPzDkm0nQoYhG1TaajEcoym3KS87E2qvgt6XXdLUGWVseqDeZQUpJ8+kuOPCV+6hIEHOvaxeVFcgt0WqJPwv2+A8u5J2PsIdV7UDH2NSl+rMR1ruReLO3Yd3BaRTvZHmWWo6sLev9Lf+voA7QEzDaATvEPXLRCv9qd/kpdXByyw8O8p08S+RIrJbmgK5Ss8OlQ645P17umRppN1+yXKoBGuo6saf5kPn1PHoR0LWAFwN9Y+wWLIj+trmug2XSXJtV0fYPUaDyC0BtAmghWzHgCpF+PhjBrK/UsAwjKv8L0yQ75RmkQEec8wOnHkySYwM01JGN7fq5GeTUjOhu6ULnE8+ABsydEDUK+LV0CDYQ0wg4z1tQYC0s+XiNPHjQ0H72K44/R0w45OHomD8zGN9cem5peyFggezKozEAfY/H9B7nCwNY28o52oddtc4xg1l6g6PlvbHWDNM4zm6kzM5JQbmQ4x6UegR8qQ8ITqfFQ6STWmXFAgTIdclrAhV+st1Tge/LcHmgX1o/kBepLvGA3Zt4E5CV1W702S+FDTOVZ3P2v0BtOBw9bkhO+9LgS81LzchrptijRYLsY+QWZCkN/MgEDQIzVpRX/SN6NUWcnYXIE6Lz/NSss99Ma4XSyQdPXy3Ci9Kw1EBgHwmw7pa4fHVNzrGeNnweMFj/WTVHhBaJuH59H2kQOHxZw4KD+9eSVrYyWb7CBGQzKztzAFb8tSma2XezzuO8grRkWwmEUuGMMZ3IVaIUW7+ut1cKYMqd8STZs8cEr25ZnwZhhNKhPlqAhyEizhDOcQoosYKgXHD4rL2zJJ082ZDDE4TkkEIJRBnoXRr1SnRQcqwhJS6xG9JelXUEGDBYuibdUzCibjqBi+cwVjBdRRjkAwnYBEkfec+nEXygnIDKGvEgry89OmLBfo5Vx8RxtJ0EmXeUvJp8nmBECsfN+fnFci1Qo+Yg/rzzmMYY8hD1j3FbMzEOsGFbEpLHPF8FQLA7/SiFt2VhvNhzWBCp2xRiLoSdOOYJ6VNlSKKjkoDPg8iVaQtUtg3pLPoeminIFvWHZ7lNsCis5MLDIKFK7WuC1GTjUsqVabzwBiTlSr9y30wTMuA/QepZXxmu34Fkue+eiqGYvnhOo0kfdawtK7gnlnoWXXCNzVZ/iE91bj7rIiTmbNRuqjlZSds1EavnD6+weR3pFyw5TUC5QFtuoCekWJg1VbYz1qAJQivG0jv9TfhrYki/gLD/oDNPPqS1lFS0SdPRBX4/oWoFrphA24aF4MfLU4QandW+3PZzlJlCGMj2jaXguMNQKlW6z3gXq0vRNb+bCXFql2AbL0Uxr7pJnHlwoVM9ULQbAhUgJDQr7MY1NCGGdCEVvnbKzUQ/1op6mvNxS0Y4Cxdf3XYy7ODPFGaG0eThjMXOg5FDAGG0Z62LON0wbgNJe9jIhz157pYziibhU2eD6ONKuXmkKzxCj4YvBiKxx2TqVAqZ6WY0iXpsGGkNZSXIwhqDKiU6rjNo2h4u+hz9l8EFhwa1HEUPOaiVn/FwW9YPd0tBWMfMRa/BhpDOOQc2aFTFzLdR2iG2YMQewnY+/Fh5pHDX0OfRNPnvl8MgmpEjVkYOPmZYHQ1Ndi1fOtFuo2YY+ZJKCz7Ze1mXLpbgsYpWZPcVnVN60bMlSRVXarEp1OI0p5IJ5LZzaB8PTik2uA9L1Se3U2f5E6zHXnJOhqfukpZtt2JQQSPeW1VhyrJwBJeYJ4lLBE0Mzhy7WG7Bjo6ghUH/Ttj1PFOngGinZI+m2iSnr0vY8hsBfBv45XqJix3FD7Hhh5MyopkMZVmlD+T54iW1kyCnNYz1S5dGAc5vzwpVEJyfK64HY4skmbCWdZwDYwc176g38AGpRXqhepCfT/5A5tWhd4QNP3emeK6+k3QcP9cdd3fGinTtpZcfOPntx7iydPXWKnut+zz5+kp4+9jCd6X7tOsW02xqxxTG8eW3LitzAa/ECMhbXLouS6znWcLL3qqtpz+VHaM9LuuMVV9JFu3bTSvcLsHj2GTr75ON09okn6NlHHqbT33+Qnv7BA9q59nXqivv1JWh2WSQQwnmFoCXkwjbcEmcUTzpIcM61XJYAnkL43t987XIUDTz9ZDrT3hCjSTYYxVdhtFn+llSunHc4Wdm5iw5e9yo6+KpXZ2WfC+dOn+qN4MQ3vtaflzlE5A7CDjt7Qd7JxKN6ix2phRHPF5SSqTy0HmwmeOtF1LTsPHNJBj3r5LJrDx1+w5u6309mZZ8tlyce7wzhe/To5z7Vn6NDLEqe+lPiJedwjB1ZxVJErsyG9L2XTqroKFz9r+4ZJbDhBnDmSdJ3T+1AHJf4xBiIZhF3IOIeyVKm96Wdsh9+/Q108PpX0/mAJ+/7Dp34+tHBEIgrQ+3P8cLhK6WzChxiKMEmLbcQDQnJRBzjQZNEs6cHxQvpK7t20RU330qHOuU/H/D4n32NHr2rM4RulECe2DgodFT+fqb2jtSUs9EGMOc+AJGNG3P6FMTmcV0in7OdLI3QIVQMfTzQKf3h19+4tMcfg0tf9ooudDrSG0EwhsIzl9iaWyGODnXE3sRjq+SlHKqBymONX11JsgvJxYLSX/GWW5b2+GNw4DU30L4XX92PBo/f83UdprEzolXqUxKkQqAir0p1a8dYX3tuqg1LLoPa81mFR/K4PqZLCDXqMvr68m5IP3j9q5y8BPXQWtI9Pgrs2Lefjtz8Ntp16BA9+uUvxuILwG20I+/kTPjk8l53GjnXGkfMckoSk5jR4cq3/+U+5GnqSut6DCLujksP0IvefTvt6uYRD3/yj01LUvglMQySuLxJUSYLXamSJ5NenJBG10gV+qqjjgebsDmrQBlQTKmjmNTENfVzkontmTy0U+/tX3TrO2hv56Xrulo8eOkygjekhTlFmCz+4ON/1E+efcWFnsLOUz0F7a99pcIp4ZIN8DnLodyQSunSe/uX3P7Xad9LrtHsEc27HgODe/jH39SPBg/8+w/1k2e0Yc7KPLRhMIgyljPe3GNPy3lO18ziswWz7gPYHSFCuBIszq+US109/IY8pmE3CsdNIylv2F1Y8rgqTzF9gJe88y+D8m88hNWkYHDYnsSLTeOh+3vl5OgJS55t2yC30vYy7xk2ngVlKfhZzskJxk03Ceeav/7eovybALuvONIbnIKexeLRs7sYmhMjoeKttX6Udgronzg6Vh89XWzDpAF4pEueuFVWN0oghw1VxpLiG5LH0RVv/Ml+WXOzIRhcCLmQL7Y84sjVD++pbSm9liQGR6lMXk0B7clL51GLylLjEGZd+fZ30+7Lr6SWU9I8kMOTULvX2zSDwR257d0ar/fui8jgoi5rjFoMb/bRVM2BNI6+hFuweSEQDuOMfhPxpJxyOzANk9MDr3w14NbVYTQRQpaT3/wzOtOtaZ87dZqeO/1Uz8/Kzh1dbH+4G8Kvov3db8f+/ZoO+8cw4Q73Dk5+889J7exUD94kfJgrqHZ7XZQK4aKpEGh9NiSBNXiJfy577Q0jKz1ijkSrz5yhE1/5Qre8+UC3ovPEsKrTQVg12tN59f2vuJ4ufcV1tPOyA+T3haZ5qAuHwhLpia9+IXb1wDfHCW1Z/B7akfYepTUyVp1pO3ZjYIlJsNUGhLaylj6VgpoyvDaKPdG0w6T00Otu1CiNvjnXKfqxz322V/wKwvr52bPdmv8P+9/xThGCYR163U19HS59OAYenrjv2z0N1b5MHxjBc3U0DPcHsfvPMu3sF+2Ns+50R6ekl3dLnXPgbKekD/3hR3rFV/xGkiGWD2v+px98oJ/gHuxWfS5/y63REMbhBR3e4/ccHeYDkW7xDaJGR3XPAre7ohFUoqqEQ229nIYl9gLN6LxW+RijVkfluQWMjcq52RilFHQEgsd/8KMfGe7sYr0Ve0XxwlLngx/9MJ28988m6a/sDPccbiqjGjntQ5HldPxRLReysig8c1T8YasCGEz3LyjejhkKeuIrn6fvfug3OgW/PzNXnlERaM8irk8sOoW+m+770D+nx778+Un64Y5yMBY02eEM+xUhvRFjAXJZ2KYrfJ0xppfTMP/7AEJ1p47hpuMwE4RjGgmMAthRIht0IRZClEtf9nLDTKVl3V3cu+n4V784rNbkmSZ0LnrWPDMbjqHM8S9/oafh0cYGHrgu3mlOoU0JaCk/FYJl+vZHJJwRJvxB4+IEOh3BeyZ3uojBvwzhQ1D8A6+Z/gzDI3fdQcf+tFvFOvtMZKWEIQzbmocJO07aufPoZ/rR4NE775is59Ab3kwru3dRFkaapFOa8xHhIkCRP4GuLKHQc/XSgWkDyMRBCdK169HAi+VOMzhq6StrIynFSEmJCaHe+7eZHCDE5Y8l5RWCI4B6XMlrK9FjX787jgTSqGtAPhDuP6S2ZfqaljI0EcMTZ73OoU4OeeLEzoZQrPvh8pvfTlMQPP/xTnmzmrttF9L9SmTbHIxozkhw+MffTAL9yKyntJLpshLFsDW84OlRtaFzBHwT0eiIb2BmCNRSAmqkQ75IA98ooBI+aaWKhz0TS57nTj3VK66tpmYPFZJIr9AUeCxsgzh1isbg4HWv0fSr8E6cDjFMxXwRPDf8ZnEZQyOaXPIMMf8jd34SyEl5jjiR4uJ8s8GmUSwb6IAbjCDQHIMwCiDvahUIDwKtEmtzfr9oaOnmWJkCG/+JJHWDAxQ6h0PGWPLwJxBSSK/8KfZvNe2xb3STr3PPainiPAN7Ox2ZDELhKUxwj33+0zQGYS4wGKZtC9YZ28qtCVsKwnOBmKw7k6MRodIE5Z+K/R+9644yKSVREUYtSykDFoYwoFirHa2HurnSGIS5wN4XXwNGx6ZfxNSJRpdwmDYaZoZAoj00DpNEVE/aTDpbrwVekYgq48AH2GMdQcl0N+hf8P5PdqsyNT3n3A6jFg9onDl2jFY7QxCnzvTT9yNsbkpjqkcAKUafk2OcrPbkUx80WK8dyu6d4f0fDyFhph2P+cacfsKrVBDzBEwB+jmsIK0+88xo3bu7PmPRstBSFuBpoM8op6qfvD5DAJ2aEf4EWO6JMKmTVKeqvk+dVR6bGwxc3wFV88b8W8D10BG7Dozf9Dr1gwc1HUF6KdKs7yyTrZ8tb90qyMSqUFgz9+hSbG/qOL+t1K+0qAkhOsM+D5xDniNFufQ3vdrw1Hf+QuFrZSMwggXciYcjTJQpXg+ni25e8bnRuve95Ooih/RHsAnpZl/RITZyUuDpnTcfaBpIDZvwlcih1blzlQRKmsqnevf4jv2XlEvH8J/+wfdybaqe9EveRfdAMQycE7Cu6JnuPkFVN/AQbqaR8fjF6IbW4B1vNn6w7KOPLVfyiXkS/0hJC8edl46/OerJb31zoAr79pOh+/pRaOt5Pdyci2Ht0919gjHYffkLSY+4pGSbWw3bREjJaeNhue3QqgFkriOOgkaaeFWIX2e8vjjE/wL5hsazj52o61I9HHucTXqlBDXtEF5l74JlYniwcvEOQ4NrmlW+1PRSriTSsOMK5gO4wJbjf9s3EZ599Iek+44V3VIhkQ3HXCOR4mTOPnGSxmBl9+7cXuGyBFoRBKMzbp42GuY/EhkAhKPzvUSblhqKD3pyOcTs4SAVlZUdO2hMIPUOzQqD3EkVI//IRPHA/daJkfaFifCgZMGbma29Lk9CTV4lqmfy9BGt3DYpCUGlLtq1i+xq2cD2QHv1zJmi+NiueF6SuLQBuKyeXgR5nQsGoNK11Vy0c5eRJeCAEeZVcTPpF89ZzgHP7zZgua0QUzruZqeOtsrguL3hhMoTTTS7IeKcZXoqz1HG7BlTiIT8zq2f1fCu6q9ICWhWwUc9pOYogsozwh+47uppNIo32QT4I0HyMDgZmUlKNe2Vul5CrsXQT3zkFTl8VpDXpPdVpTNgya0Qy/6wOemWtxBVa/3YWWmZT3J+SOv33IxAtT0i6jWrVaDCy8CPkH4vKFgd8Dj1lNnAG5QBJhjaqLZPK17KgY1RZJw0TzDh29RKzI7LDhY5q/APFJL05DjLJ209Z9uv3PPRjz4j2rbaL70KYQSRTJHU5NoakNklrOqY0kdyyrRhgyfBqNgU+1H0zgguvhcjwfyLGrEa1vdHYMe+fdnYkNYg9DLxy4aRSy6gLlIrMom3qW3XYdMd57bplSasP8kkK0HCi3aX18KzUcTVsGiIuQ0k2VDCFoUx2HnpZehwSd174aH9Sf+03CR7e3VzjsrG492XT9yY7EIklCNCYUO0LHKSUP0SLWO8Lkjj3Ifp5wFk/DeFo6wzaUR/sI1pMTv03NnHHqMx2H3lCws+TuY8cmMJuK8nHnE5z4PnwkPz3KCnPLrXRuCV4RnqcjeKypwgbRMoo5a70xVg71UvhXLhtKj54GxTJQJpVGxQKWqsWwYzvuTaV41V3b9aRbCd0NeS/zKQjTthQ9tXOHflen5TsORWiHr40VtzpcZXWTFPnPR8NFYV4cwjP6QxOHDda+vyWBdeZ948idVp4ZG/MXj25AlokyMPleT1UKk779NJxVQYQhGHMsGncUuzA4ffeLNbr8AxPbsnovtNrAYp6xC69NrrR+t+9tjDhOv8+ptwUtx9lBvnfqL4dT3vR845NXCFpmCJEMhW2Mp3rpOhYwyK50R6/JWFptP9P3vyeE0XIDzcovYKMdRLpp4kdB0LOeM00SUvuxbmF56ww32Ch9ApgyEZelahUB/yaSmbF2wE8iFuDqfPTjiGfktCuFusJqzAW+Yh1Q4b8BhamnkZTg685qZhfjECT3//PsIGCtabFT5nFn4KigPinE8reguW2w49Fw9xlWKTDgjzUA89bYPGmBZGgMXZZ00lWhGvuPmWYUnSKn+iJ8gkmTqRx+EkTH4Pvv7HTRktiOe6ewR9GCJC6vazanvK47ouwo43WpnWzrlGSasnYV//1ET4xT/z870hZE8f6feSWxRe7ACotD+GKP2TdOE9Q2+7bbTOsAWjv1HG7Oo0fnNzmAsaLOucyBBZu84rmLEXyJHM2I9ElWMpKyFspDvkkZ7k5bRy42SQBdMT37yHmiNd97t47yV0KCgs8Iv0VVqsP/Ga+YT0g+Hhm73723V2cKbz/oPNcmmH6PZTaoVKs+0b2pjarWyHiuz0XeTh+rGv3EVj0D8t9tbbVJncRxTDoNyHhfcS3qbwaDCcK976jvneH3QCX3YQhNSH+fFX6QTRhI7N1cdx2KBVIFFnolKL8IXr/P7HotNjZzx+7z00BZe98jV06HXRa2f6NQdqcyKZ+kh6Gv28Ygy6Aie/8dUeP8XSuRYmVXP2amTlQaB85g6tGCcYaWbliHDyy+MGEODwG99Cl7/lHVGxa32SnA7SyjjFMILyB1pTcPzOP0ULJtItAwWP9I3HlxnKez5gE/YCBcAGskr2hznR4UOEcLf3iRlGcLBT3sNvfLOzfs/qUNctw6OOb7i5pzEFT933LTr39KmijNWD/EzV3KC4e8OHNOYjdk8MV57tuW69/bEZRnDF295BR376Z4e3xCXFp2SmMLZIUcBUUyhz5Kd/hi7vaEzB4/d8dXh/KNmm4f0Gaoc4qdZm/vmDGXeCxcTUsGxm3/AKL0wFAgWfrII00oVqvBh/PvaNr9AlL31l3H7QhgOvfC3t/7GrO/yvdor6bUOfXfq7r3wRXfHmW7pJ7yU0BSH2D7SLMoommdpl26cuIc3D7ZOLvPNUKYcMlJXr0Ts/QZe99sfpot3jr0AM3vuSa19Nj3z2E/R4zz/lfUcgCnUSllJ/7Gd/nnZeNv3JxrA/6NHg/VUbUKHxnInaDyYYGZIWjdU9zGeL3IZJG7v/r71smsoInK3mZ1nirgd2PrxVQQhNgpeeC2Evz6nwloMfPNCtJp2I+4Y66+8UPWyy29PdQzhw/Wu7EWPXbJqPfO5T9NT999K8EW0MWm0OIQlXqP2BIXShcjz0hrf0Hn4uBGV98lt/QU99+8/7N2P0N9U6QhcfOEi7OmXf1yn+4Te+ddKoEB766H+gJ7oRYLBMLs89pVhfCSnijNDbuc5Xmr7039832iPPgwGY2tdI/QVveDNddt3r6PmAMBk//tXPzcROvU9UBfgqPiJzzfUcznHSOU6P9I+842foUKe0dT2edbbSiNqd01aZE1++k4796UeLc8cj6QBiCIfY94XA7s75PsmFKQNY4kaYONdeuiknel/HEPqWvCGtHPGFUAm3fphF+ocxpm6ObQSEm17Hv3oX4f4YdtrKht8+LyaU9LL6MwDuT5LygEoOpIefZNmlMpRXsR7+xH+l0w/el/P0kWi6P9kpQ6Z8Xe7MIw/Rsa5uVu0oq2BsH4HMr38U89SYkHp6lGTGj2hcF9uwxFshiJRLUvUbAQNe2vSYOjvhskqz8780WVpAmmWG6Nin/3i4CzsLZI15BcKS5w//5A+iwtX8210UeENv0GHRm/Mqx1D4SU/RUYz3iyEpgqBwJfkH//G3h5tza2rn8jinH7yfvvdv/0XuM+vN8UGa9MSX1RGtD8kQpF2tOge5pBPRdbRg+RthnnGNGaTYTU1LVCbjEVrYhfnf/rCLOe/9Bk17CKLlPUi5fuKb36AffuK/DA/dK7wRWOtD3Q1Zp7EBDSXH1vBbffZZ+u6//CA99qU7fZo0cT6Xvw5OdHU88Dv/YnjonstoxppRUhPZBGl+0KojjQJT3UTmeom2zHw3KLod5KwFkM9kcJVUanzMYx0Ta9TCRwiHwhNhYemyX8GpionfJIf8MIIVtsJLpMJaf1l+5QYBzLOV2Pq5bmdGlboKGcr0W+ViIM1Sv4A4Fe8xOpo/7EKS8Ga8sHRZreCIw/rMLg0Q7j4/2q0khbifQfGbsodHMlUcKEr4DoMt5phquXt9Mg4zH4m051PEZck8mYErTpJkIZ/qVmSe6eLQg697Q79MOkmaadIDBq8flL/fgsFT/DWIJIPiETzBYbvgZrsIxzjMJyUqtiFVu4b3fg3pj9/zlX5OcPnbfrrc21imC5z8oPRhGbW8amVAYEeXS2hWC5vHHFSrcjdtoiNHYHKMvv+vXrMcRQPnniHfWIl8I7fDJj45NeYoIO/ivfvpqtv/F1orBFL3//6HYO9Rg09vFBlzVER1+718xyv3qEGxY5oAjd5upPYN/Ss2A/5iQAzbF6775b9P64E//yfvp0XYe8TpNYqS9/HgJD+xn044HWObxeQrgPbvWO8q0O89MKrj8yfBc34ePkojDXkQD+Zdh6AM5WPPXHqeUrHSzWUrr9a6c/kZXvipyWcm4DYk/F2kB3A4prBui71VL4XBgUYqR7q8GGUvzr8OabJyW43KCiU5ubxSM1mCKLyQFD4Fu15YPVOUP1ec+O0PZaQaDEJUnrAog/CjRgHHIr6ekbkW4wmc7vZgyRBoDahgzRjepp5XfStwnno/pychFreoowrRdS5gS3W6ayhwjXUkYyNlhRklLdlh+9jQZFU56Y12ZNqLdAjPof5IC/GFkA/pX1olrHkQEphKiLlZukRftgAYyqdMecmW0hHRCcsMckt6bqGkW01vX6rh0EVowyZ8IKMAtxJn8psNQ5WTnJPxsocuSkxVPMFacFLXVECo0s1llGlGG61jyGWE9MtxMx+ckywly6KIi7gmYLvVRXnxwSiTQVQ9ky0mrWc59NOf88PuJMzbC5TGLFQCyyReK+VMCSm9VtiKxohyo2IYRjUujgA531w3BS2aJvLcMgLmum3s0LWGpyYRUEhtsLNsZT+v8c2yseCZK7M1gKl2WNdn0FzDakpdAf13lacBYpRuTEfWYDiTBpCGTnxGugyxwAteo+NNZ+I0zDJczfCIJoc/lQg1LhbGKNk0gEBpDbBHE/lyyi3ElKOidNi/1c0dFKgWiHj4mJ4HAegc8ZDVyfogdTDrRM9zo02wJwtFtH0ZW5hDuoRT9K8Oqea2dnYIJM751LEigEM5O+kivoCagmvkCxiA9agJvz/i93vB2zNN1CmVwx4tM5aegQvZEU8mWE6SalDlGWXMiawLBo/P6T1jbHNNVGQzxs6da0/v7PWo3k3A+Z0D2PgQoaVM7J0bKfBopXWdvR4vhni0fHAYaFvCCSceRz0VmzoB2ePf1QTyecYL053oyKVKLApvdwXkff1yns0gbtgxA0Hd/RhCJ8ARz+KP9vXSXE5izJwDOND0Uo1hmJcgkQu1qmbS35xyRhTBhUVxmDFHjPGwTOWthPwMyyN4Z8X3kMNS55cqxXWK0nCHWfmT/cZwQ6ry58kEGDbgVf2qe7UsSBgMVpy5IX1mvskHrduq1z4CyLz06vU/TCrcVWEvRCCFgJNG4jjWQXJZfrAKVI+4KX1BHD1/2HuPZtFy8t6yogndYxgjmUbhXwCn3XMrVDy2NTGcE3ojQV+nsmXptU3O5xAQ28PuIKeXblM+m/aUVWepfBAOEFN8rBc2bxkUIxrXvVVoJYpwHHbV+PzqwCFPFqsqW5rnos/695LCjkajgWlawbVVkYpupBiiu08GeYidzUqpYb+8mGILjSdp/iCpHfFZgrjenoaI/Ve/jHwBjnRIJfSkrVSe42FQbJSBUeCxfiekI1QZ0UbBOm+EzRiD0puA+05OgcHgFpkhlElVYVRSJaXXbMMb1GAIpZje01V3nFnXkYr118bVpNUcLkuNw5BdAq9yTaU+tBCxIhAYkNJYEEePpNyLwqeUWouyx1WspNDa+4uZA5Tr8CzvC37ybd3vp+DJLttnY9dSpbH5es3gDNDqSR9FlR5GYJBZ6i/GN+NVatXStRk6OALz3g7tOYSc2eApZmP8p5brCPKsZ0hlbVKa0CmXKFT9DXjpPgAqeDoXW6dAnuQkSzvzEcdoM3YUngx9HbvHTgfUklC/FSKxYT8m550XIxDad9XL6dLrXk0HX/8TSz3SOAmOV+9Hgta+ZlyDSMZaLjK/eFQwpWuVt6FaZ0dg5vcBGudz8BOMMTRFcy1GjjfC1BJo9DD4Gv+sRSbeMF6s1lofBIbyUdSGIpvs0gQmtQ5OUEcy2L2d4l95y1+ifVe/nDYC8MF8Fa4oJBBfS4YbBVY+E7DEHAApjg1HCdcMGzlJDB6UbYWmeuZJjsiHTLjLKrLawKMY5nAtLJyxY5AvaCBUGw7wr2LvjGzqIU128IoM6aVuydeUjU8ZTMdT8PCHf+JtdFiFORsJqPUpxmEzCsSlhtjnOUwSXazSFXVzcsxajH4pj0U01wLWNgcQaeiW4796vsRki19WiJpewsYGLg4k9C9Xdb4Kk+gvoLJkmMI1XqtNpjpi4L+qUJO0/S6RmKhmiBIJEkn17usmtZe88jXnP8wZhaHyciPMvrxX4ynmF+L7PjIjtJfe4EOfz1N6hJlfiGmkzxnWoMHupBdxxuowNFm4jhmBHxGYA3h08cIYZrlsdZi2lZY9u1Whg8N1eyIV3mTFd3QjKP4VP/XODQtz5kB+paGB1GXsOWRPX7xRH3GW12mfbgOWGAEcilKGvxoXyoPyw0Dfr6SgM++PXNZe1BNRmXKisiC1v4dIrRINT4PEwsmb8oCTNcyMnCn04FS3QNRmRKCWLCG0E7I9T7USZ1yiEtak9wDFPCkVh78X7drThzibF+ZMAIyO4e9KL9zGLk+hvBJWVnqMFTCKN/YnT1mMPYcKZZ4FrHEOYNOkiZsnQs5dQ/Xm48hvkitHF5K+S8u2nCmftClFzrLImkVFw8P/BVrbkAhLkMFwsBNkGG7INIuAqorl+3SzmmMnrmL/Jo9vhoLwd99VXZhz3Ws3OcxpQ/5sUnb1ZEKg4lzUNIGSiEsfFaKevhiaGeace9c+bPyNsDEeLV5ltKJXa6aMWnlaqTRPFRdbYKFp5KO4VXCdRWquKn6zbIgrTtnwpw9zbnnX8xrmtEBt4QFDqBy711dsyiGe7d95OrwuWPscwIshiOpRad5IRGXYIk3eqYKavAAsVslWLukq3WXNIw1Uj/cBojsSWLtPVSUld/vMhDi1l88xFwnghZtWl78phDm3bI0wx4G02aSSuOM40s3DOtY0uNYohGp8NdzySGE4H9WZAdZ5J9gxdYF25PADhzvyvTkDHSVd1nlcV6nccQrx030AnCekY9zuEGDh3A8YXtdd8BP51JxqbizkePiyRx3zBJDSXdvg5S99ZRfm3PDGTvH30FaE09/7Lh3/7MdKGKPCGkpiLcCDmcSWlrDHWk72SpCOIZCjYrmfFG2LJOOqG2HmAzHLQ9EDrZh+g8ivSFoZI2XT+WJR21dE0NFOERRuGPO8e0pPZavVm3SO11zj9SgdD/uu6W5a/dS7+iONtYuddM/xtWisBZfCu3/O0GNf+gyd+OKnSeKLr3p27LyNfboyVg+R3y5zPUf/1qqjAc7jHGBCuvaWODtHzPO28Y8pgs2KWj4ocrX+lMuLdd8i2RDSRzT0JjVjb2Ls1OCm64TThzldiHO4C3XCyo5rZQitEbPpMMiXKeK06ozpwds/9a176OQ3vkTyTHrjW0Rho/AN5Weop/mCP6G2gTb7NmbgFpd1wNqfB/CRy2lcR8wpMZ7uZZJe55E2x+HMKXuXNGjqdKhAS9lyslo+frUAfjD+Tm5+WDGiwS1L+lpMfMCb0HMP5cu+nOLesxFkA0hlh+W/fVe/gi69rrtpdcNPDIqfGaVxkBl4smSZRvrpB75Dj3zm4/T0975TlJ61xy8vtY1pPT3OoVFKHCTFua/Fqz9ugS2bGyG+VIbA5N4gW0o3fdi4VSDxXRS2XaTdU7JOzShbIWL+QvMm8Vid4wiQuBCspXxiSKeSGQUGvP1dfH/FLe/ekqs5AUKYE0Kc41/8TBfmDB/dRg+fzkuSVE6/tRFO9SH6KS4YGg+U3w6zGwSb9zyAHdLAsQvmN/Byh8CQmjwHTkpLOaG85o8hDhXDyxPlSCPNG8KIkEdY0cqN4Qyyh9crnYfvw5z+ptVWndR+h5781p/Rya99aVB8VHRU/giYboWtuswL2VJIa8sKVVt/+mLYZxsMS94JtulTgXwaIg0pQzHvD89KF4ONah/PgJDfTRMlxYaP/m8fAhXtTV4eP/iWP2wnVLz+YpEZXUBHSEyAW22UxvqyReHlcNNq6yr+I5/+WB/n57CFMcZnSis4DBkMIZFa2CB979c4d9CE4UxE0x2qL7LELK0w7BCu9a3tSX1Y4j6A1ENTpdno1h1tT0xX64gDfjUVkIk6mUCAWc2HECU9EZZCm7gRK90hlhzuUMnv0xfDQygi9eoOEannG+J52Ht/xa3v7uP8+dDqoJbDmUunVoAc5nzh09nbWy9fjhDfsxmmseu4OKsMtq+sZYjouYIqI/WoIeTrH1oZ5pM5bz2jALBcCDRNz8dTjNtxr1HOcytYzuhJHjZTDNkZQB/KxMz0pjhUeFGrPvG4KIbhGUCSefjw9OE33dq4aTWllNLIszTICMF6OqK21vEQ5tx7TwlzINs1AKbydRZyqieqH2uk8evRhZoxRy0jaTKCM0XDwBq+DzCW5pSzd3fziddySBMiX5HSaVo9gl2hgLp4bjWGN9rTD0kLWPmRPuyRrPiL4bgoj24OY8zQlhzm3PCTDcX3zvFaJtJaIBN0y3UIbx751B/T6Qe/W8IPLsFKfqNzlhvDiAt3eZPSJ9Ks00vMinimz0bZjRag9IJJu/+WI4HyrlOYB2v8PgBNpDVwKp2fQ0/qS6Yc9NCi5KsHusIIgCEOhkK9klNU9GGi3BuBoCEQ5flB929/F95cceu7lgxzNg/6MOcLQ5izOHsme3J9k0pgH4+U1xVC3MlwnkaEnMdmtOHsGrAKSgbXBhvfgCHg26SRN/d6rlNow8avAlmDteANBGZYtzbe9w04MERM8l8sFlnhB6WO1z1Cp+ir3RpRGgmyYcTRQKS3qxDmvCCEOW+6ZctOak91a/f9TasuzFk8c6Z46ZUipwT1VgUi7xFpohKtIm5RUoOL/WtsxAcxeGB0ivAsYuuC5R+KV4kOVKOSjNPlVuY4eZ9m2eQmq88N97WSIaTfYlEp+2Aki4yzJzxQ/pobY5izRRU/rOaEMOd7382KzCukpksZ2AlpslKntzT4fsgO2HnXeEoSv74KrMeaYyQyhSvagsccbQPmhUDSSFeAs9GUXWJol0if5bjyvFI0lGP7cIPzspzSITE46uYAi6ToKrQZwqYcIvUjQT9k0J4uvDl068/Q3quvJXnke7TVIIQ5IcQ58YVPDR+17uSzQgJhTpRXtoJ4yLsyqcT7+RofYikydkcAeLtGX1NaMu09Dno+7E8Ib1I+S1upk0InfqYMJenXUsZV4DzvBWqljXBklzqZwIjGYrzS6DRZRa+0WF1VXj0ovQ6LFv2Pd+6hQ296Ox3sfiu799JWhD7M6VdzvjgoPlHZlYnf+GEx3p1UXJ+XLVnH7MPH9zj3A5YlPDeOikUsIeW4hmTTh1PeWQ0pczV5CY03sPxrUQLYgNw7R9w5Q1PCQyfSmjPEE/z+FSr/EAKt5pBnsZAcCi1WFzHMeQXte+Xr6bIb37SlFT+EObg3B7cmEOnQhqg4aTMIlAksZDAUqr5BnOig/no6KeYchw7XJ9rRvkEPIwmrV57OYf4SsIbNcHa4YQcXNFjKs6CaycK9bkfa2sD6hmOM93I/iIDNsB4KwwPznQH0k9zVYQQIih8mBbtfEsKcn6W911xLWxGGMOdTdOLz3WrOs08PyolvYkYvzkT5Ljg+fKK8ftLk4T2ow+Jukiguh6aRIeKklw6gRQmZkYC1108ObNR7mYdppIUFV2IYwLBauFF6njWs4XkAmcTA0CfLRuo3Huc7g24bxci0ICYZlz1BwwggKQxiiSHQEPbwjt106OZb6cCbbtviYc436ORRCHP6v0nZi5zZWeGhPBeQZA+RhpCaHySaiT6EMQMGfH2eh2sVvQj6MPM9MkLnDOXQR44opp1QC9YFOuUfUe3nKX+ADV8G9TZWJb+FXzmELMoTJZWclB+su5ZBvg4hz64Xv5z2Xvt6urRbzdnaYc4f9WFOCVfSCRHuwYFkuBaqYneAXikleftUGgSGl1zT4IpYSuNibA5u9VoUj57N4/m4HsxX+wLzDUCb9zh3o/kOm9zGwWE9jRoKQ8BTJLvojkd+8e90qzpbOMz5/KeG1ZzuXCk5yKLarpBwRF/nC8YQSEcHGFJoj2zf6OaAp+FqWGiUwRCqyqNpmGsBy+imgeXmAEL+eYupHiCuyekwLIvxRp6HpxxHVfXmMUSGwTvdxd2Kyn/qgW/HMOdLfXzPqPArTPaVI0OYU+ShljdR+9N1ChNZx/qorOpbXVk/IQHQqyVqHtEsXP1RSpiuLf2GFWRcKDsHltFNgE16HsAIMkASEsoB3bgFEcL4P48IBHGlSD1n3wIQFL8Pc7pwJwAqflnVKUuYpMIeDIxxZCTC8Eeh5GDaOC/rKQlwXWWU8evECNKq6GMej9fn1bOEN18LbKABgFdptbWlrWyKGyNhMnKc0U+bDUOYc0e3mvMpWu0mtUWhCW5ckUrH6x6sJ8VLNAirdKz1RkUiDcdbgemDZjlpFfRwz2fHKOGsGeaFQGrnYMowUrf8JFc99oo6NmFRootLmv0DMDBqJoPK1ZbwJ+U9n/ofvP2T30yrOUOYswJr8MxahJxP7IM9lL+V5G1Cy6fZGzCVRQXdN4xWJkCfsX9Mfl6HN17I3qlNFeC6vWsx0HC0SNX3iGtoeKNX81PzBm8EZt4IM0OpPnHyJhNrumzTJF+WT8uBSPIJ7PlPtBa06dCHOXf8Yf9geerbFQhvdFgDoPL1MJfw0dOXslJGAcTphdRw1bbvEq408vtTKR8tIyLXi6s0qWkQ1mPKeP4R+tY2YfR6Kt2BzXk1ojNEq/SUZ9NShjTFqvoy3QXeLFh95ul+NSeEOv1qDhUPj2EOqVP01DEF28yOCDQBcNjiOkglZ8xEpHQ99foZT0HJ4K+YEQDrSufSoJl55XEj2yBY0gBaksW8lA/DY06OQ6mn6K7yt1lIrxhMC0OeczlvYOgNYc7X802rwPYKKHzepwPrlwyEMATK+a5lM9ADWCG9mkOpvA1RSIckStEdq8hJQu6KjwqfbLqtk7RTE9suE94IfMtBqoZRqdTqoAdVpU1Y46sRZe35rTVnb5RQsSqV2CevCKEAKd/RPy/gyDko/rFPfrR/1DB7e6Zq7R5DF+Xle70SwglsZQwE5fOqClhIq40YNlg9EaQF7WPR9eDoYJUIFdiOEBk98RnLiaWJlYtDQ0z9Fqb0jpbIH2BzlkFbRjx6nR5DpOKgUmeJ6WHwQOdL/xOsnnmaHv3cHXS8+632k1r2786iY2RrCHDe/0SHK1ZRoGlDOdH65Dk3e83OtecYhRzDsEST9dKEXko7j6fSHWPjVoUNHpiWhnW8HXoJsAKeqi95TzH6npVFYJg1nlEov/tzPfDUfd+mJ775NTp59xd7xV/plZop7T622xWSslpDyMDkTm+qPBtlgOLymJKjjCyOZ1zk4GJl4VmKFYOISiYO/TFDmMzyjGdJ5VuDrs4MgTw3TdQeiyFPPSgxhC2MuO4OUkNyocnnV4xLqWfo+/I+4vXCt3/zAyXMGWIXyqs1XLRR3dSiEgGU7cdDGzljEOVNgPbOKcRSJZJIbcWhcPhTohrP9UW5LKjMRVQ/WEcv5UI5GeO9TH8mvmAheniAqf8iTPnASZEQKV7ye4KaQ9hUfy4xSjiw5FshWtftPNxdiMJPufmj1jG1pcJij6j8grXpGtYMcfmPredOoxNcKkcMWpW3GaCmKWKRT/S0nt/Imq7bVbq+bm/OYzISLa82lOpopWzTozOIaUPfkeIihWwCxzIvF6OuxdiQF+TBM20N6+vrjQmBsCXKkYimm705XCNavM571gON+OK20BHxicdSXlJ9PMKU9YZ+A/ExQoHwBhU/hT993oquKWkZY7uwWq65w7py+w3L3CrXyFNbjKMckYVa5Yns8MCk36+dU8TcnxFS32GzvcBOHdoA4dFN4F03aCSt3Z1NmPE8QBHAUIfdaKVxOPZ2xu81A5QcaYvu7GwskvsqzgPE6eFkDemcwAisoqejNYLxlpeaND7D26P6DlsZum3FI4FhTiob6C2KBthWDUVFtQv0sfQ3dLgzQCh6FOXYG7a6CVXUTumSUioxbqN450qqsQM5MSg1LgFPyDubm2WsUEGGmIO6Jlp6c/p5VggkamCSKm00XRbEarAuVo6e3b3BmE5SfnIxvRcTrfB4qaiM+iGTJtV19vhccoYOg6+kpNcuRgQcJVKMy1yPfol+pXz5eqIbo4HZz8WyouwrnbIkkmrBRSs0KWUu+ayMgcjIXtAQiuEUHnU78ugE9wPEbbaX6qX7eAgrtMGA+1jQewwJZWTIShMln7x/LpiPaetDISFAqnfOo6sHVsmt/y3Ct9iep+5xkiGk4Z9LGDREHqJopG3PnEeRug7UuxJnAc1cuRjeyshU8Zwn78X1pvhcohJidTAAZUeF7aoUjCtWE4tQp+VUIWXnIsuuAK0Rpg3AulV7nMKB0KXpyVJ+VP4arzwPq+78qnqGX7rR3AamWTCGVvclDg0az3WNKU1Gqy/kzPDGY2Va3pHKCIqJoke1uhAaGxHxiGBQBxRf2ulxjaDyqzqdfq7SqJE2AcvdCc4VRK/u7fRUzCT3sihDqBlK8zWMBurJ1bhCFJbUyhC3olaOoCi1v8ezDkiTFVC+pJfZ6wOaGjbifKR660KSjUYuLlnJnY0hGUVmSE+IqW4MP/rzhV9HXwZGPxyCcCadvirIUB8KA9nAdKzKdtEC5GvZwjvgFgSIKSUwaSOwxhDI47SFZw3EuU4xfJZTSaNsG0LZEcqwFGTsJmXSxXvW//zvrsNXxBc+aSPrz9EIVBvgR1A2mm7Bp4KDwCY9x0bo9gQbS/luoYoXQTAEeZIUNtFix/uKZgvv02ADBGiqj2RD/WqrhZS2WDnl9rNuw6R+UQNvblmajge+/a5L51EaA3FqFThBR5KKZJmWr8CgzPP5otjKyp59dOXP/a90+U+/h84HPHbXx+nh//Jv6NyJR9S+H3XnN/xWIDYGR14SJXphM2KayxqY1HLMlEczo1QGMfmtsl4ZS1em8A2yVyc7PLFDZ+pZ5Rlw7ceeHNXx87sXqCV8K0Cx0iTK7/bBVQ2hrPzl2jiqmPeCd7ynV/6L9u6j8wWH3vJO2n/d63sjeLwzhqz1ycGsmGZi+zGIxb0cLSXFMjlfQG7JgyY5UZGjp1D2XNGNmWo5lGol9BSeDT0yuPh8QWq7LVN3f0nD0Kklp6gns69H4Dx/JZJ8D5O8vTiSzXkwT4j1Csx6xdDHMPWFf+1v9QawEbDz8JV01Xv/Hu158cvo4d/75/1cpN/M1vCK/e3/cL6QMhxExc95yigAkixUg8kfGjMukQ5tGvQU3XC+qOuyfQejsE5wLEPxBemqLU6aOLqgBUoueKH02HUDNnwZVAkvWT80UNgqtwzKE1095qXiqW0h5Hnp3/u1DVN+hBBWveIffLCrc68f8jOMYnneoD0RZ68YG5QPbJSfobHARKWgiAD0VLKpLyFlL2vqwg5R/SWmXpNn2CBrxOS0GfmzTal43hjYeAPAOC4NcQlMbJM/aMGsZCDYMVLSXtYp//5Xvp42C/a8+OV0zf/5/+gOSn2aLFOMuljPKDo5X7BBwpBD6QEXOkqWrNPGQi2VH5EwZGMHrypMOhysRkQucyAgrcM3cvjbeKVHmGEA4hxbP3LO06lRBEprI16VtVfA73aF8xf91b/VK+RmQ3ih7gu7urNhUvq4BrkiEGUokrOVololsDGzir9BcZT4rKEZx2O7SdGIGchLVW+jLnbwrDEnxff6G2lYmYgnVEtnjh62YcndoFMEpV0mCQXuDKfdknku1ytVXPWB0moU734Hb34nHV5ipWf16dP0yJ/8Jzp179fp7PGH6eyJY336RXv3056XvJwuu+lmOnDjW2jnC66cRe8FXd3nHnuYTnziw8XZiVQvTmAVw8Y5DT4PjEqWrolGFG8MCu06Zqf2iKAU3ig24gvQZySY8Ng0IBbGeygJWTyGxnRLZqbNydMwKeJv/6X986mNViGV1ypOMd4rzCFEWfpEBxJ+Ow5d2cX9/7CfnE5BUPQHf/Mf01P3fo2iOja9axhVDr/1XXTkf/wbswxh9elTdO///V5aPHO6LI3S8GxwqoeTUqZzcl5xklZJchgUC3ud2EjWtKwVJYsErVZ4cyqZqjh5r3RO5YEaMeXZSXPbQr6xOs0bs6Fr/+TUqI4vOQdYxhaSdxBy42Cl3ELV6AE4aQt0oHPFz/2NWcr/6Cf+E937//4ynfrW1/v38qyEtfq0vz/9QuvjcLvSaW5Y97/3//tlerQbLaYgjB5X/Nz/Vti1zRUifGY5v7k6e8AI7MinJeecDPMATFO7KSET51pj9BWuW3GrkK53YftbHFJTbZzIw7YLLaeaADPnAK3aHI22+VHB0nWfyzbIofJxaqrlNYwG0nn/I334MwUP/8G/pod+9zdo0XlpjndRGX7DZ4Uwbai0f8agK/Pf/t1v0MP/+bcn6wmh0EW791L6Ak2Z2EktLc7NLG3CVrpeTJw0oMJkavHSHHos1NQaddd4SsM8+lLT4BY+NQxCIEb0eJUlfuMwbzOcWy8Ip1WfAAEM5GOMWi6l/w2rgVE90JVGvCu68GQKgvc+FpQXFipSWFLdxeWYF9f1Me9YZ0RzRoLD7/grpSJKxprPSO9qHNrEXL5noNfw4y8VieGSZPkJqdFCkqwKed0RQNcuh+YyDt2Mw6T6lwyPmCaxX/NqlOHTTuRSmRT+AcuZL9Ki0zEx1XrX0sMRmDQAy7+1gSpdTLpQWcEhLevc+cUtKlnYNu+bWPIMMf+xP/jtsiWXIR43oQ+GQysEeVR+wQjOHj82WmeYjKOOMfA7VF2HK/3NtMWQG1XYyHEwnOHDfkTZLaAMyfR9Hj1ZrZZV/bRo01E0Eh+LdM4xnSE/0U5jKfZzSpvSD726p3Rl4ehYQ/9bejgFa7gPII1z77oB6uGQ8sR7ZngRk7PCSL/ePxX7B88fJqe5GuPds1GIVvRkIMNpyQy0vv9b/2i0zjAXCLxJ7IG0ItoreAzrSGAkiApdhvgIqScmRTiCwGZlxsVxyFVdCm8hcDfZeYVMulgcGuepmqo6MpoEWRJ/6TmAEUaV38InajKXGilGwHGeIHFCtXfS+z9Mj935MUrBVfE/pGhqwQ51pF2f5Um16PO6tFPdChIalQe7X/KyWKuVgz2iMXjyECcGh/JscK18k9cIyWzLNhTW7jS1e3kIr0nXKQ4vuOtT0YC6mkaE5+zzO/rz8Mdh3gjgtH0+npj0onhJZVpk+vMYxu6JStaCJ+6+K5/bMJKVhxn25ud4H/NwIpr6QGhyLhBCMzEtUK2zYzEz6GOsbGE6UE2KowzFE7DX0dLoKy8dQzTO/Cny9tE8MYpd0XMq5+oEaIo551KP07RJmKuvtMwkGIfw1s9WntujvQaLlqm/SMBqFN1x+AiNwZNfvYsUGTY/KiFRinvUxDe/8cocOzjd30doQ/jyZI45qw7jSkbqkU1UvHC+gAaIbRBpWgsa74dsNMBDNibMB2Ya9lTxtOA636VPdX3MTjq2zxhWs200rYcTMHMOEIXo1jAqMY1qE6Ih6Ilx/CPaQqbi/6d/8N2IXSpjWInIei3JJkqcy1hvYorKQuXURPiiPfuovMJdjGg82dhrtI6UPFWOnLi5kTc5G3TqcrvVmxt4pGS8rjzBM2GONcZ8bOnchCxnWMESj0TKzDSaSDN5ecTUEzhUpHAeJptjsHr6VHkYxfKVSDOKfXg9CL5NTkUdUP7Z4w/TGBTeIs9mA2BKKlvjSzv1CTqaRiiRiKblw0lo0fPoS6MOBnSZqMfSw/oteO+wlAbJllK3+Jkjm/O5G3RefX45T7DJU3uGPkaLHJkZmulCUqLnYDC8mFm3jDmt2TCnoMxU/jF6M65z2NuoT+bQ84QyE2RJ/DXA/Emw7VT7q4Z+7yc1rVjA+gcMuIIRTK3E2BCpJe6mSDP7MDJFmBx9JniLUw4916lkJX7eaBma1zcodyK/D8b6jBp1catemc/j1PXSbW20rwHLPxE2SlRM/tQwGxW8r0ZGygw7OscUMWxgC0uhGOsnciKFbPVCBNs87MAIUytQw+5SUfcVNNHCiw31IIOqiZ/CaVzPzavqxGSm5QijEJl8Ty3zSDWvJ0K2Gco9Bzb4gRgZzxFH9I7BhZRnvv8dGoP9191Q8M3dTvQIdgVPGukExS676a2jdZ+zcwTBibVO7+8DkOcGnk9Ytn7rhjcClrH8tcPGPxHWAG6koeL01zF0ODWxFHn5O/9KVt4q1ECjWAyvtlmAAYg1CIrHOA+47Ka3jNZ95vvfLRegF82l723YMjBvL5D6iTkvy4U+jsYluB4uiran3HKjVrJCKSVzoN+S0I8CotfjhUhtRVaMSsaXXJeoQejQW9/VhVdHCMwTYLgO9wkYrTa1x96NdZyYzPqJm07NNFFliHTVbfrSOK/LUbN8m7d2e8Thvz7SKL+1rjnirmDeVgh767paFWDDBlEVe6jGCZzHM9TadKcsLgMF6qfvPdrPA6i6w1V+V/3vfz/OE2ItAgISVHRU/IHXLDgp/IRXrBy5/b2kFZ/VMdwjOP2to1kKuP2Ls/hiK81WANutbjzWX5ObLlTj626fpy6Zfi4mcGlVVKK8sF4yR8Obqwu+vohHL/UJefVR3R5sxwQscSeYKvolTXweZOJn+RToC8N7UKbjf/IfaAyCpz5y+99UNMT2a/otyA2BMt8dBOUfvL+FYhCnv9UIzZw2kGiRZUbbejSevoysp/rB6ZdJfNpgWutt3wx43uYAyuGbyKJPduLmEx8fN4AAl7/zF+jI//ReHdfj7lKj9HiNv6D8l7/z5yfrO/aRD9mdHvmY2mEnxLgbdW5HXTCwbHue5/av4YkwL8/DtekD4Gu7udo8H68bmhHW24/PMIIj73kv/dgv/jKthHAoKTWJCoO8Y/hz0Z79Xdm/HUOfcTh55x/TuW7pVWDWzdhO3FKhZuYIbVn5uF7Zlrv0zqmRNwbLutgW/VbZMb7HyrToz4fJ9Yl7b92pP+zk7xeoqYpz7uAIkbIBlRbPew9Ow3VQ0Ot/7Xcmb04FCG+AePjDH6ITd/6RG8Vb0V1y3Y101f/xfzXCnpr2ff//3+0NoPfyTPoBHCojm96NuuSiEBsm2RxbDUI8oun+ICffq4tong54uF5b8HqMhzn1OGWu+9RZnio2Cr0BbCCI0UKBNFzLzyENhWdxf4Fe1HnpuRCU9Ym7P0uPf+VOOvPgd4Y7txzuHh/plf2S62+gy9/1C7OMKsH3f/PX6ORdf1QUnWHZFhS/P4Vr2+/bsLGwtQ0gaoM3Ca5GAWMEL/yf/3Yf7z8fEMKwh373g+4jl/0l65EAF464aQHbprERMGUAS0yCQUvd2MweaSTdo0WkX7xUYuf89gamuCxK9NDv/DM69c2jtNlwprsj/dDv/tOy3MmU3zBBVN42kXc3xLbYtrXlhfljMm7lN2Q7WWasDprgkWbyQDPradU7pm9zaWhYYhJM5BLEmGVKqNWtVigaccprTCi/OS7NmtPzvcPbmYUe+OA/6EOazYLTncHd9w9/RXt9AsVWvkbyPYwEXN0/0bKYVDih8fyKrpdH03h2/dy9P2HzyedBXQOe0hsPh0bqNHTcMvNgOgS6Zcd8amsBoepN4bgXR9kOpGFI9MJf/DsbHg4d//jvD2FPvLavUSEbDpnybCel27ApcN2nz41KfIkPZKy192aUsyYWlaU/wLlHMdxd/eHvfJCe6UaCK2//pVkrOMtAmDAf+8hvdTfhfh9Dea30ZI62ydvKvwRsrqCWeCJsznra3DSdjRPDtJmtqiVagwo58kgh3Zr8H9Kpe+/ujeDQW/8HjTPBQguOf/z36OHuRtfi6adgJYdzjM+xkiHu56L9Rvm5uZZJ1Ga0ZTVjDfHotspO9RU7ZVp1tvBabotoXI9kBn80E2ccZoRAF69BdZYEkIW3LNqfeuEjnkNeWN688j2/RPuuv0mPCLZvMS2mh0crg+I/+rHfp8WZ4UEXd3UH0rxjqgbfGL0Nmw/Xffq5UclPG8BPRQNoGdaUM2spG5E7qLjzL4L5AFyrOSUYCxrG/utv7H+7r3pFbww7X/DCvN4fwpvVzruHiXSY4KZjenZXKfOU8qe2ch0WNWVD1Hb6Y06QaLovPLypPpzrPG3fjrVpTl1zdEhG6h7h7TwZgMxBnQGeC8Y8dgdDfHY6T4LxmM7zqJBoCXnfDW5zMZSrvDkqfbombSBkjMF+Mvf8wsZQ3VxotWEtbWuXue4z4wYwaxIM6pTBd/QDlnUM6W9Ur4xTG7nEtyfEVIn48W1l1YDCHN+xw9FrC+AkWoVrifGI1ttQENw3Cen3+hO0AMv7bk6y8sevXbLnxLQMSNVRrpLEfWcX+Yyp/oDCTilbX5KWeANy0/HSaD+mukm1QfNVcj3d0XlefrpmcJ0MNWI9bZg0ADECLunesca1KZaeewyb06LXFXhgJiGVZVOJEirWkUVrrykJqW7hsEVBCx+9vKT6CXjBDtIWFetvK96UTO2VxzXSoYl6qFmeRusR51wapevjdPs9Sm2epHHd0rzp9gc4v98JPh+QQgiJig6Kz1qbyzmisbkmsBWmhglQPUl1QpiWslfX0sjfhi0Hm2gAqEoTkI1AhnDIjOT4+d1MPUUyVOsfx3xM86r0LjhaDlfppvxc5S8x0hKwhOzWXddWhDW0f2bb59wHeKCr/xo3K317Co/IgMLrE2mUjpclZiCTUqaPAmEESNlZWYXcG2mKPpDM04FWrG/CKhKj+HkokXLutWuJW/VQqE6y8neLjZSbA3k2L/NotPCn6pjEb9SvJheGjsjkZrE5j0R+pJ0n9bHa70LTjZvIVy/TZV2m2ofPgLNS4njcnsDwS2X0Ds7y9mjcxIY0Ulqya8mWpzqANhSs/JctNxd3GSNu4U/VsSyo9XGTlq9p/QYgtPgwPd8AXjZ7d3ZwIMxhmMSi5jNoPyo9GoIKdRqKnyfJdn6yDVsGZHXx/imcSQN41Wfpju7wgYGiV4tjiTZvCkw87wIXB8toCBqlKCxrT1+loyFQ/EySg6uZJK344rSj1b7+KNPtXAsgL1OyFDNCjeLSDHrmuAxIo64pmpP5Em4dfeBVn6cHaAJmTYLPXLx4355zfGt3eqMKmMmGQLYkQ2wguozLeKKLCY0y0RBwcutVT9ZYEkmGdWUbXjlkctHKqCHmR1oWx71lPQdQduRUgv2AKCOybu03sfRIo/n50MciI3TwGtrUDKXSsUFHTN1Im+nos53O0gyY9UDMTXfQ42d2yG1d73+g5nAMpHGcKjPHDZDrjSunndy6UBUvKi/u9Dsbdlr3EaZhKY1vlLVysfk0M31ufXPzZSLdu15WH+bTWfDiA2cultuCztIMYFoS/uLNdA1dRO/rCt7QFb+RthqAM+x1mrUH90B7+BGEbdiaIPJAF/J8hFfowzFknw3/HVNpabxPpIcoAAAAAElFTkSuQmCC;" parent="1" vertex="1">
                    <mxGeometry x="90" y="117" width="70" height="70" as="geometry"/>
                </mxCell>
                <mxCell id="21" style="edgeStyle=orthogonalEdgeStyle;rounded=0;orthogonalLoop=1;jettySize=auto;html=1;entryX=0.5;entryY=1;entryDx=0;entryDy=0;strokeColor=#3333FF;fontColor=#3333FF;" parent="1" source="6" target="4" edge="1">
                    <mxGeometry relative="1" as="geometry">
                        <Array as="points">
                            <mxPoint x="130" y="492"/>
                            <mxPoint x="485" y="492"/>
                        </Array>
                    </mxGeometry>
                </mxCell>
                <mxCell id="24" value="Provision environment" style="edgeLabel;html=1;align=center;verticalAlign=middle;resizable=0;points=[];fontColor=#3333FF;" parent="21" vertex="1" connectable="0">
                    <mxGeometry x="0.2685" y="1" relative="1" as="geometry">
                        <mxPoint as="offset"/>
                    </mxGeometry>
                </mxCell>
                <mxCell id="6" value="Pipelines" style="shape=image;verticalLabelPosition=bottom;labelBackgroundColor=default;verticalAlign=top;aspect=fixed;imageAspect=0;image=data:image/png,iVBORw0KGgoAAAANSUhEUgAAAgAAAAIACAYAAAD0eNT6AAAAAXNSR0IArs4c6QAAAARnQU1BAACxjwv8YQUAAAAJcEhZcwAADsMAAA7DAcdvqGQAAIT8SURBVHhe7b0JgCTJVd4f1V3dPfe1M7szu6vVri7QAejCkkBIFgghZGFjLtsIMIfAWCBAMoe5jDlsDnMaBBgE6M8N4hQGAQIjECAkIYEAIQmx9zE79z19VXX948uqr+f168isrLMrq77fbk5GvHjxIiozK96LyKzsWqvVCkIIIYSYLeY6eyGEEELMEAoAhBBCiBlEAYAQQggxgygAEEIIIWYQBQBCCCHEDKIAQAghhJhBFAAIIYQQM4gCACGEEGIGUQAghBBCzCAKAIQQQogZRAGAEEIIMYMoABBCCCFmEAUAQgghxAyiAEAIIYSYQRQACCGEEDOIAgAhhBBiBlEAIIQQQswgCgCEEEKIGUQBgBBCCDGDKAAQQgghZhAFAEIIIcQMogBACCGEmEEUAAghhBAziAIAIYQQYgZRACCEEELMIAoAhBBCiBlEAYAQQggxgygAEEIIIWYQBQBCCCHEDKIAQAghhJhBFAAIIYQQM4gCACGEEGIGUQAghBBCzCAKAIQQQogZRAGAEEIIMYMoABBCCCFmEAUAQgghxAyiAEAIIYSYQRQACCGEEDOIAgAhhBBiBlEAIIQQQswgCgCEEEKIGaTWarU6SSGEGD0/8OsXW//4wFp4+GwjPHimEa5e3wgYhTbiPxqPxE4zV6uF+H+4/Vg9POuJS+GHXnUs5qYTBQBCiJHzJT9wuvWOD6yEc5ebobkRQn0+hF2Lc2GpHsL8fHvAzUbZqR1qRVWAS8S2ut4KV2Jwiuv1Ix+3GP7wu26buqtTAYAQYiR87U+ebb35XdfCmYsbYSE6+gN75sJivRbm5trj6EYcezjYCjFp4DLFtQofeTkGAheuboQXP3NP+JVvPD41gYACACHEUPkP//PR1l++byWsNVrhyP75ONNvj5fNjbbDF6JqzM2FMB+DgVMXGlkQe/fP3jkVQYACACHEUHjl959q/e47rsfZfi06/rlswJTTF9MCLuPF+VpYWd8Ij5xrhvO/8bjKBwEKAIQQA/G9b7zQ+tE3Xcpm/McOzYdaLTr+psYVMX3gqp6fa9+2euRsI5z+tWoHAQoAhBB98+Kvfbj13ntWw4kj9Wzm3xjQ8aN2vyPqIHXHwaT1b1L6U8VzjodWwQOnG5VeCVAAIIToi8e+4r7W/HzI7vOvx9k/8YOyHWH8SGl1y9Sjjtctgna8bV+/V9tWL9VGWYrq+rKyfSPd9PvpN+uAvHpFOuxTqm+pekX6eXjdvLpsrx+7tbkQ1tdb2crXh95QzWcC9CIgIURP/PefPdc6+un3tPBU/6F989kAaPEjIfKUQdNqF42aLCvSIVt7sBXbPrF5WxdplBXZI9aGb8PX921YfD2WY2/LisizX9Qn4tvI07OgTlHfbDnspfqEvW/LlnWjqJ++vs+n6paRWTsbG+2fsq6utcJnfNujRd2ZWLQCIIQozZf98OnWr7z1arjjloU4ALayl/fYQZGjSWrApcymLUV1CcpsHnTTB/3aoK614+tbHasL8vRTWB2S0k21QVJtWX2m/R74NGDeUkbPy20dS7f6AGU+b8kr87aLbACUW12krQ1vD0C2MF8LD55ZD6ffWL1bAVoBEEKU4rO+/WTrV//0arjz+EL2kJ91/hgIOUCCVDpPZuUWytEGN8I09nk2qIMyq8+9TbO+b9PLgbUHmLe63DysZ8u5Z5m3bXWBLbf4+tjbejYNmLf2mfZtWB2W2bwt93Jiy63cYuWoTxtMA9bPswFYx2JtANbn3trn3sp8OcH7LA7snQ8v/C8P+aKJRwGAEKIrn/vdj7be+ncrmfPHkr8dJO2ox0ESez8a5slYJwXt+3rIe3tez+axT+nbPaAON4vNF5VZ7Geztj1FtoHtO21ws1gZ9myfaWunCGvD6jNvZYS2fZtel/3wUM/vaQObr0cdYPUA9a2OLbMgz81i8z7NPN4UuH93LXzo4fWOpDooABBCFPJfX3+29Qd/vRzuuLmevR7VggHWDsq2NG/wJb6MdrwegTxVZtsnKRnJs5MnB0X28vB1rO3UZ/Vtp9os6l+qzMvy6vcC2rJ9szZ9P/Lag3wQvdSx8di+eDskJSNl2iD46Sv4L//nbJHJiUMBgBAil9e96WLrx3/3cnjMsfq2h/1A0cBaZiQsqu/xAzJ1ytZPycqSV7fISaAON08Ze1YnT590KwdldIpg32AnZStPbvE6RccP5JXntW/p1pdu5NVP9QnPw+zbPRfe9cGVjqQaKAAQQuTybT9/Idx5S33b7/u7Ddz90G3AHnRATzHo5xh2nybxM46SaTnneB4Gr7y+/3SjI6kGCgCEEEme/WUPtA7uncteeuIHvVEMzGUZpkPbyc8xDnCshvUZrZ1xBxVVOOf440FV+1GdAgAhxDZe8+NnWg+fa4b9u+dCY6MjnBCm0WmPyqGO6liN+xxU4pzHk4hfBFQJBQBCiG384v+7Go4fng/rzdbYZ3uzyDQGNWLyUQAghNjCs7/swWzpX05JiOlGAYAQYpPX/BiW/hvZE8141akQYnpRACCE2OQX/+RquOXw/MB/1U8IMfkoABBCZHDpXwgxG+jbLoQIX9VZ+sdT/1r6F2I2UAAghAi//Nb20j+e+hdCzAYKAISYcbD0j7/tL4SYLfStF2KG+eqfONt66KyW/oWYRRQACDHD/MIfX9l84Y8QYrZQACDEjPK8r3ywtTfO/Dt/yVQIMWMoABBiBvn6nz7buudkI+Bnf00t/QsxkygAEGIG+Zk/uBJO3DQf1hN/418IMRsoABBixvjY1zzUwqt+tfIvxGyjAECIGeLbfv5860MPr2vpXwihAECIWeJHf+dSuPWIlv6FEAoAhJgZXvDah1p7d+mpfyFEGwUAQswA3/YL51vvf3A9HNqnpX8hRBsFAELMAD/2pkvhNj31L4QwKAAQYsr5uNc+1NqjpX8hhEMBgBBTzLf/wvnWBx5cy5b+G1r6F0IYFAAIMcXgqf/bbqpnS/9aABBCWBQACDGlZEv/S1r6F0KkUQAgxBSipX8hRDcUAAgxhWQv/NHSvxCiAAUAQkwZ7aX/WpiT5xdCFKAAQIgpAu/6by/9z2vpXwhRiAIAIaaIn/g9vOtfS/9CiO4oABBiSnjJ1z/cWqzXwpy+1UKIEmioEGIK+N5fu9D6m39eDYf3zetd/0KIUigAEGIK+KHfvBhOHKmHRlPv+p8KdBrFGFAAIETFwdJ/fa4W5uO3eSR+wxrNa6CKDmtS+pzqR94DHDvR50HO+Tj620sbKd1h9XEcn3XIKAAQosK87k2XsqX/I/vnQ7PZEfY7EPl6zHtnBLnX7fbEodX3dcswaJ1U/VSfu7XTTz8s3frUDfbZ1+23X74/eXZTZWXOeV5/y1C2ju2HrZOq363PKfrpe0VQACBEhfneN14Ixw+ZpX8/WCFvZal8CshTgyVk3LwtkGeP+sDaTelbu76OLQM+n0e3Nkne5yLWDsjT8zaYtvXz+pRn02L76fW9LJXPw38+5O3m63azzby163WAtePr+DKbL6Jbm4SfK0/H2gFFtsr0a4JQACBERfnX/+2RVisOOPV6HHfswGMHTqQ5wAE/mBUNbjZNIONG2xbmrR42gDIvA1aGLWWX+iyzuhbKbRnShHIvs3vbhgcyL7f1mbb9goz2WE6svi3vtge2DaZRjjTtAasHfN7aTLWDNLeULcpsXepiY95CGTdrh7COtZ+nZ+0A1gWUe5ndp+wS6Ni6wNa3ZXk2JhQFAEJUECz9/9X7V8ORA2bpn4MYByQORsj7NHXs3tanPqFeSm43gD31uGc58lbGPGXYp+wAL/e6wNux5dhS9oDX87qAOrZd6jBPmLf7vLYpx54b8DYI8tyoTx1bl3KWpfa2PusS6qXk3ADT1OPeyrFRn3liy6hv97aezVu5xZZjs+UsAz5t8ySlT3vd9CuAAgAhKsj3/uqFcPMhOP/OiJM3OPq9h/VISs/awIY6th4HRODrex3asFDm+wJsGWC5lwOWAaZRTh1rg3Kr52GZtWuBPFWWZxNy2yZg3sqK6ltSdQHz2NOGtcV6lNm0h7ZQznrA1vWkdChj2uowTXye2DokVdeW0z7lzDMNrA2mrQxYXV8GKKNeRVAAIETFwNI/fuq/aJf+7QCUGtiA1/XlHthJ6UBm5UzbtoFNd2sLQCev73lYvVR/kacsL52q57HlSOd9TkvKpq2LNHXYB1vHpj22z7Z9X4f5lC0rs7ZSNrgRq2/bL+oL8Prepi3Lw9aBvq/nbRKk88oI7YEi3VQ/oZOyOcEoABCiQrzuTRdbf/WPq+Gm/fOhwaV/S9lBiAOY1R3G4EUbZfvhdfLqpOR+EM6p27UbeQqpQZ7YOl0bcFj91HkoQ6r9Mjagk6pLbL7o81tYx9tO0U3HlqX08s650y1qIqNIocznLtO3CqAAQIgK8b1vvBhuPoy3/XUd4opB9bwBC3KU5zWRV2/ALm2j24Basr1ex+VNs0XHYFgMar+XD1ekizLflzJ9G/bxGcU57+UYwf6wP9MEowBAiIrwKVj632gv/ffj/+3Ylu3zbHSzbcqtardq27ADc2qQ7mIQxT23WQLbFdr3+zwG6Y+ta9vL0u74bOraSgk262NfpNvFjqUH1e0M4Zz3TI+VqO73efTVpwlBAYAQFeBHfvti6x3vXw03HZgP682Ek+oIigYjqGyr16FMOgXtQc/aLkVOQ6k2UzJ+HpSlynsl2UbnQ7Ed+xnz+pRii25Ugl2/zSVk8f+2zYLGUkVks34Hq5tKY19kD9BekV5umS0w6ZR+SmbbTpWTojKSp8M2sIdO3vEjtrxqKAAQogJ8369dzJ76b5ipP1PZABQzdnDyA5XPow4HLpQhjT3THl+fUG7r0I4nz0YKr+vtW1DG/gPsbZr4ehavt5nvJLBjH1jm82SzPCpgw19nxGuaAWbh+NnmWqMV1tZbYTVuK2vtDWlsKGs0ol7njzrRxmZQgA0F0ZZtO68fBHWyehGUIU0dyi2+PknVgczq23a6QR2/tza8HZRh83UIy7zcY+tbXeb95/B54vNVoZa9SUQIMbH8629+pPW396xls3++8c8OREwD/232ZchTJ28wS8lZz+6BteXtgDxbIGUP2DzrUY/YvLfBtC0Htr7H2vB6tgzYclsGx0wBHtDEcxpw4htxj7itPl8LSwu1sDDfTs9hi+qLi7WsGhw/ft7BelmQELf1GBSgjfnO33uYj/UXYl20h+EbZXYYhy0CcadLGTZtoTyla/fAl1uoA2yZrevtAZtnPeoBX99DeUo/D6vvYVnKji2jHOlaPDdnLzXDw790F6tNPAoAhJhgsPT/rT93ITzmWD2sG+efGoD8N9nrldFJkdJBGlAObFkqDXzeQ1sgT6+bDUJbeX0BXmbbt6Tagy5n5HD463DWOEfx//175sKeXXPh2MH5cFPc8Lca9sY8ZLtiELAUnf5CPQYAiQYzpx83rApcW9nI9heuNDPngu3y9Y1w5XozBhbtQAJ26jEoAOgnhnSYRZp7S1EZSekgDVJ1vV5eWQraBUV6ZaAt2LFpkuqLb9/b8PrA20YeqzRnFAAIIYbFnZ97XwuOI/tLf/GragckPzj5QcnidfMoayMvbfG2fB1QZMPLUjqeQe36+sDrZ047bhvR6WPJHk5/z9JctkJzx8318JibFzKnf2jffMBfaYQuqmyuCERjWBXg0OvbRkCBanMxMRcd+3wWZcQC1IuVrixvhHPR0Zw81wj3PboeTl9sZDLUWVyYiwFBWxf2absImAYp3U6z23Qo93i5zZexUVQ/jzJ1rCylD7rZAFbX18N3VAGAEGIofNq3nmy964Or2SySs3/CAcoOVDZNUjKSV1bGDvIgz7alqA/dKGqnV7u96Kd0OVvnvXos598Rnf0Tb18Mj72l7fTh8DGkZvfx4znbdML4J9bvmGjfLiiAdbbVjf/Uo6NZxOpBbAvBxKWr0enEYOCDD66GB06th0vXNrJVAaw0YFkatxUyO+3qm2mLl6f0svYjqfqevHbKUFR3ELvdGLTPugUghBgaRz/jntYdxxa2Of+yjHKw7Idh9mdQW73Uh+OH7spqe7Z/y+F6eOqdS+FJ0fEjDWeOJXs4fThkAPvdnHy/2Jk9moCzx4YZ6MUYDPzzw+vhH+5dCQ+eaWQrDbuX5rLnBmwgMC7Qv2G1OaitYfYFeHu4BYCVmYcUAAghBuHxn3dfa2lxLru3q6/ozkDHvxwdPxzpnScWw0d/2K5w1/HF6FRrm0/xQwcj/qgcfjdsQICHA3ctYmWgFR441Qjv+dBy+OdH1sP1lY3sGQQEAnh2QAwfBABaARBCDMRnfvvJ1tvf31763/w7/xUEo2AVe89b7str7WX8O48vhOc9ZU94wm0LUV6L8o3sp3yZ3oQN9VkwEDcsR++OgQB+OQCn9M4PLoe/u3slC1r27p7LPh9XK4YJ7Fb3ih0MPQMghBiYo59+Twv3lvtd+hf9g1kclvOvx1n/nbcshI99WtvxA8iwjA6dKkAHj2cVsCrwyNlGeNvfXw/vf2A1CwwQIGQBQ1tNDIhWAIQQA/GkL7i/hQfJ6vYv/YmRw5n81eWNsD/OkF/4UXvDRz1hKXsCHz/Fw6nALYEqkjn5uCEIWIzBwD2PrIW3vPtaOHm+kf16ATPXUawGzBpVDAAqEssKMf284jsfbcEB4Tficv7jAwN3I876r17fCB9x11L4opcdCs/+sF1hdS3K4vlAcFBV5w+y/sfPiOcV8A6Bxx5fCF/4yYfCJzxzb7bKhFsdCALE7KHTLsSE8Pt/fT0cP1yv9H3/qgHHCCePF+p8+gsOhM944YE4U57LfkrH8mmBgcy15fZriD/uI/aEL3zpoeyXDBeutgMdbGJ20C0AISaAJ37+/a32W9209D8O6OgwI378rYvhX3/MvuzFPVdiHkWz4AjxawD8mgHglsA7PrAc9nR+eaJbAr2jWwBCiJ7B0j/uM+MerZz/6IFzxxv54OwxC/6cFx/M7oVfjrN+zJBnZRYMh4Xlf7y/4OXP3Rc+7fn7s7cV4tXD07TyIfLRaRZih3mzlv7HBhw87vdjCfzffOz+8EnP3huWVzey++OzeB8cxwOz/YtXN8LTn7ArfM4nxmBo11y4vqLnAmYBnWIhdhAs/d9yKDp/rbmOHMxq4ehxd/8VLz4Qnv2kXZnjw5Gv8kN+g4KPjmODY3Hb0YXwypcdCkcPzme3RxQETDc6vULsEJ+tpf+xAQeHV/niOYvPjbNcvM0PD75BPsO+fwtw9vwVyue95GC4/dhC9jCkgoDpRadWiB3i99+lpf9xQOePN+DhJ3633bSg2W0OOCY4VnhR0H+MQcCH3b6oIGCK0WkVYgfIlv7h/LX0P1KwtI9l/3q9Fv7Dxx8Ih/Gkf5zlyqHlg4AJDwbiQcnP/JcHsr94qIBpOtEpFWLMaOl/POBp/vVmOw3nf+xgXc6/JAicGATg2GGl6tqKfh0wbeh0CjFmtPQ/euD88Tt3PO3/WS9sz2Ll/HuDQQCem/jsFx8M+/fMtX8iGOViOtDXQYgxgnf933J4Xkv/YwCrLJ/00XvDE2+brPvYVVr1gbOH09+7qxY+4wX7swcmG52/hCiqjwIAIcbE53xX+13/eNWslv5HB5ap8ZKfj/6w3eF5T9kdLvVw/9qel1GdIzjPfm3vxHWD43l1uRUec/NCeNlz94Xrq/ghpZgGFAAIMSb+4N3L2XvXtfQ/OjBjxUts8BO2l8TZP5b98yarKWfKmS3K8ma5w3DC3jZtdrPd78zb2i1qI68MAdSlqxvhGU/YFZ4bgyoEWHoeoProFAoxBp72xfe3juyfCxta+h8ZcI6NODnFu+z/zcfui94shGbBcjXlKaeHspQcspQ9r5vnSPOgTW+7Vzt5WLv+s9l06rMRlOEvJr74mXvDrUfrWaCl5wGqjQIAIUbMK3/gdOvc5Y3sffPy/6Mjc1Bxxv/iZ+0LeLvi8mr7qXXv7LxTtU6vmzP0MuqnbPh9Ht30IOdmyZOTlJwy29/UZ/J1kYcefhUAXvYv9mXOn3lRTRQACDFifusvrobjR7T0P0rgjPBnbj/8MYvhWU/ald33t86fTo3OzssJyr3M5pnmZvW5AcjZFvDl3BPkrT7wOr5vKfvtzI005ba8SAZ83y2QX4+B1WNvWQgf+7Q9WcClWwHVRadOiBHyEV/yQOumA/Na+h8xmInOz4fwCc/cG9YbrcyZ0YnRoVmnhrR1eHSAXsY0YTpPxo11i7A6rEOZb5vl1r7Nk0zeSfsymyaQ+bYA7XOjDCDYwouBnvfU3dmzFtlKS8K2mHwUAAgxIr7yR8+08PfBtfQ/WrKn1Fc2shkpHrLMXmVrHJt1ZNis0wM2TShjnVSae5/2ee94WQ6sLsjrm91jo03mAWSU0w7LgE0TX87N2vF2kcSzFfXo9T/+6Xti8BUDrnaxqBgKAIQYEb/81qvhZvzmX0v/IwMOCS/7uWn/fHjWE3dlf9o3W/rvlKdIOUILnV0/9FPXOldPnr3UZ6DzZhqgftk+WT1rx9oFSOIY4z0Lj79tMTz1sUtZWrcCqodOmRAj4JmveqB1YI++XqMGPgsvqvm4j9wT9u6aC+uNtmxceAdrHSWhLM8Rs9w7WpCyV9ahg5TNPMroeR3cbnneU/dkqwF486KoFhqhhBgyX/GjZ1qPnGuG/bvxs7+OUAwdOEI4/1tvqoen3bmUvaCm2+w/hXeovTjdYTrYso69l/6NErS5HI//iXj8n/zYePy1ClA5dLqEGDK/8tar4fjh+bCupf+RAp+HY/ycJ+8O8/O17L50P5Rx4GWd/CD02wYc8Tj6lwLnoNGI5+DDd2d/M0A/C6wWCgCEGCJc+pfrHy1wevgzv/iFxZMes7R5738W2SnnDzZXAY7Ww1Me2zkPiApEJVAAIMSQ0NL/+GAA8FGP3xV2LfQ/+xfDodlshac/YVeWVvBbHRQACDEktPQ/HrJl5+jw98VAC0+gIxBAQCB2Bsz48SzG7Ufr2Z9dRlrnoxooABBiCGjpf3zAuaysbYS7TiyEw/vns79ZL4ezs2DFC89hPPXOJZ2PCqEAQIgBefXrOkv/MQDQ0v/oYZCF2b/esDgZZEHZeis88bbFcDB+D7KfY05ZEDCNV5oCACEG5Ff/tLP0H2c+YvjYowqnghnmkTjzv+OWhczp6KGznQfnBdf/wb3z4c54XvBypkFOS7/fpFF+A6fxMlMAIMQAPPNVDw5l6b9M/VEObpZxtVMWO/AivR6dy13HF8LuxTn97GzCwC8Snnj7YvZ64EHo19n2Ug89tFsRg32ayUUBgBB98hWvO9N6+GwjexjNOiI/oOQNHlYvNXD5ekWDm7VVBHW8rpX3O/haYMe34bFtpiiS33ViUX9fYcLAdYPVmduOLgQExevNKDMXkz1dTPtT2OsphX7KLmA6zya6Zrc8PWA+RgZ0i/SrggIAIfrkV7D0f6T9rn87QDDNAcKW2UED8qKBJa9eN/J0IadN326e3PaHpOxTltK3sBxbqi3ubTnzEKxFp4JnLU4cqQ+8zCyGC28DHNo/H44dqmdpnJ/N81cAdfw550ZsmthrINWeLU/Vt3QrJ7DJtqqMAgAh+uA5r36whZk/sQMB0hwgCGTUyRs0vA27t4ON3XPrNiCl6lhdm/dlhDL7uQjbZhn31iZJ1bd6KLc61iaCrWMH69m95izwShkTOwbPI54DyP4IVuf8pE5TmXNuoT5gGnrWjtWxNlhGfeoxzTJgZR7KWO77maozySgAEKJHvu71Z1v3PNoIB/am70HnDTx2o5wDBveAOnnklVkbFi+nfWy2D4BplrEtmya2rt37usSWEcqsLmR2AyjHw3547Swe/oPjZ5mYLFobrXD8pnr2ZkbcpsG5s+cKaciwEcjsBqjD+jZNmLZ1LJD7utRhHeLzgPU9tEeoY2VVQAGAED3yhj+8Ek7cdOOpf375OVhwIxx4vIxYObH6vq7Xp32LrwOgZ3V9uQVlto+Edm25tUNZXjs2TVIyABvWDpwJnMrxw3Xd/59QcL7WGiEcPTCfPRuDFzZtXhSO1CmkaqoMMi/nNeKhLGUPadZL1QVebttm2sqIz086CgCE6AEu/fsBIjWYcDCwgwIHjdRAwfq2zNskvr7Vs2mrZ9vlPs8+sPopUmWsU1SPWJ0y+o2NEPYszYVD+6Jj6dxfFpMFVmaw9I/VMdymwSuCU9dj6nz78wkdbil8Oeoz7cuAT/tyYu34PiGf6mdVUQAgREm+8WfOte4+mV76zxtMegH1/QDjbaba8G2ndPIoq4s+9WJ3GNjPBccCZ7I7CwDar1vW/f/JpRb/O3owBgA9/EzTnu9+yKtrLxOke7lsvM28PsLmIH3fKWqtnfxTUmPk//z2Q60PPXQ9XLyyfuPhIX701BWBMsqZTsmKsPVAt7pW3+57IVWnjB3okF7b7Be22Ut7ZT9Lnk5Rm6xndVpxKKs1w0Ztd/jLD+0Ki3UWTj72o4ySvHZ4iIfRB9z/v77aCo8/sRD+3YsOhOsrCgAmFdyewSrZX/7D9fCW91wLB3OelRk147r+CW5Pnb3UDI/80l2VuTKnOgB4+df8Tes9/3Q5nDyzkl0JtXkM5tjaF0Z2ljYTEaatTLSZpmOSOs8uHf1+WyV+P/DfLbc+Lhw9tDvmex/J2NS0Mo7PF7+64crKRvZ351/yrH3hakzrDYCTCV6HvW/PXPjH+1bDG//scrZiNguvyJ6PAcAZBQA7y+t/5+HWd/38veHuB66F+uJcvBDnw56l+bbTH+Sjoq4/rbSXd7ptnVT9FHntFNnxMuRBmfb6JdUPS7c+gyIbLMOeFLU3EvBnZtfDoSMnwp79h8Pa2lomEzfwp2hUYHZ16dpGeOmz94XnPWV3uHI9BgC6gTmRYAVg91ItPHR6Pfzi/7scFhdm4zujFYAd5umf//bWe99/Kew/sBCjzno2MOGPhWRPDPuP6U9RqtzKmLfyvLTF1iNez+rYMtbxMqtr9yBPBpgHeeVWDvLqgm71i/QA84RyUFQ3VQ8yq5unZ8mzA2LEuNFshKXde8ORm+/I0mLnYADw6R+3P3zkXbsUAEwwcClw+heuNMPP/dGlbPzFCo7/uk0bVQwApuIr9CO//kCr9vw/bH3g/mvh9lv3hL2722+hwr3+zPkXkSrn6fOn0ToIAlnqdHs56rEuy1I6gHKbz9tDh3nq2z3LqQu4t3ib3ICVAW+PdQHTLAMpPeDzpMiuBTIrt/Vs+55UGe1w39oItfiNPnj4eEzOwPrlhAOnshC9SPv9/zFjz7uYOPCV2bVYC/V4zrI5ps7XRFL5AODV3/+B1qv/5/vCzYcXw00H8VeoNm78iVDsuHm83F6gtmzTIXS2lJ7XBZSRVJmtn7ILWSqNzZKSeXy5tQf8nlCPpPR9Gpv9PMDqAaatni0HrMMNcM96LPP5FHll/Iwsi7P/ZrMZDhy6OcwvLMbrCT9mFjsJnAjusS7Mt9NicsHt1o14krAKUM/Ol07YpFLpAOBV3/f+1o/80n3htsfsycZw/Da4K3QUFlTLq+rlZfXoVIBNA58HVjeFLWd9bHn6FluXdSgDtGFlxMt83TzydLrVL6pngZ7VLVuP5NZtL/3v2rMvu++PNB4cFTsLA4DFentGqTMy2eAc4VzNz3VWAMREUtkA4Ht+8b7Wj/3CfeH22/dky/2bF1lqZOh1tKB+kc0U9kJnGnsvt3lg7Xtdj6+f0smDur6Oz7M/tl/2mJQ9Hh7Us/WRZtvdbFo9r5uqa9voZhts6m9Eh6+l/0mCpwaB2BwcSicvJh/8UkPna3KpbADwdT/8wXA8c/5ukE5dbVZW5mr0OsO4gouc0DDse8o4vRSox/7Yfg2jjym7pJt9fp6yda2sm20AHS79H9bSf9+UOdbdSNhAgI+HrNpLyh2hmFh4inAboNT5moZzWsHPUMkA4K7PfFtr3756dq+pMoPBKPrpnTzyRY6yDGXq7cQxt22O5Fi6pf9GztI/2t6Jz59iUvphSRyy0vDz5NmI5ZP4kcV2eArxAqDCS6LbOU/Rz0XQa50ZudAqFwB8xxvuad33wLVwaG/nz03OMv7jIz/jh6Rvipb+7THFQMXByh9vn7b5fmD9PDt5/fD0049B7fXTpsfYQCwGZ4LbfXoBUHXI/mBWL+erzHVX1p61Zeuk2vAy6kPOLYWX5+lNKJULAH78Nx8Mhw4tRucfB+yOTIjBuLH0X+fSPy4ufpltmqTK7AWJtM17UIf1UntsrG/tsMzi26IO9fLKWJ4Hy60e0taepZs94u1xD7u2rNPODZXOz3rz2hcTBc7V5umy5/XGCc0951tgOcuQt3U8LM+7Ttimt+PzJM8O8GVFuhNIpQKA17/podbDp1bCnt3z3X/fL0QZsPS/0Qi7dreX/pt46p/fYn6Zca3ZLzavvdSX3V6XZdLA20YeG/Ww93WszJYxTZspPdqnDrF2UqCc/fK6LCNMp3RJSk77pJOGGHEZ/wpgnkkxGWCVZn29Fb9P7m82lLkWmMYem6+PPC8C6gKmrT6wel7H69o8dK2etcE0yEtXgEoFAL/1tjNhfjF2uWIHWUwwnaX/A4dvaS/949ril53XWSpPKMvTBUizjpUD6lKH9YlP0w51LdYGsOXWDkCeMpsGPl1kB6R0uAGU2byFZcDqA+Q7aTgR/AXAlbVW9ksAMbnguSw8P7MWg7X2nwPunC97fu05R56nlHmWA6vLvS/H5ut5UmW2LmDeYmVWF3hdW1YBKhUAvPsDl8PBvfX2m8CEGJQ4SGHpf//Bo6G+sBQDgM5T//byQjqVt4ONHTxAaoBgPcDy1GBh9VN4udW3fcKeachTfQI2TVL9s3qU2zZSdgB0Wca0laVAGcs7afj8eKrCSpxVZv6/qL7YcfCLDQRr6/GcFcZrPJfcAPaQ23qUEZZbGbF2UkDuy/Ly3Kf6Yut4/YpQqQDg3OW17HWg+hmQGJzOu/537Q179x/J0pvf8tSg4kl9+TkodLs+WW7rgW71bL9S7Xi7JKWbwvcjz14eth1vi8fGk9K3n7NDJo6j1dXrnQc0EzpiMsC5wkubrq1uhDUEbDG95dTbc76loAPlvszmfTmvB39deBtWL69OCtqhrrdbUSoVALSXljoZIQYCS/+1cPDI8fhdxrfZfKP7/XKPop693vu1X5ay9qGX9z3MGyBtnum8z+brdpiP5+vC1Wb2mlkNAxNMPH94A+D1lVZ2GyAbs7udcwvkZU8wbfh9HlavbB1LL7oVoFIBQPsJYH31xYDEa6i99H8sLCwsxdk/nvqP19UkXlp5A86o+lp2gMvT61bf9rtsWyDqYiaJvzC3eU9ZTCbx9ODUnr/c2L78X/ac93JtkDJ1dOlsoVIBgBCDg6X/Zlha2hP28ql/OH8MHv0MOjtFlfpq6bPfqIYA4PL1jbC6rj8FPMnQx5651IznacI8bpnrb4aCBH2NxIzRXpLMnvrv5MXkg9t/9ehMrq1shHOXm2Gh80eBxOSB7xd+ronzhGcBKneeZui6UgAgZoc4MuFhv30HjoaFpd2hhaV/rQlWBjiT5dVWuHBlIwsGFABMHjgneFD70rVm9sBmPaYVY08uCgDEjNBe+l/E0v+BzlP/mKqI6hBPF07Zw2fX23GbTt/EAV+P1ZnTF2MAsIxATf5/klEAIGaEG0v/zItqkd0GiDPKh842Ylq/BJhU8D17REFaJVAAIKYfLf1PBzEAwOzy/OVmOHepWf5PzYqxgWf+8Efa7j/VyII1nZ/JRgGAGBmT8d1vL/0vaOm/8uB6qs+H7EHAh8822g8CtovEBABnvxjPydkYnJ251MjSCgAmm5kIAHANTvJ1OGl969afsv0d1M2ynX6Oz4067aX/g1r6nw7i6ZuPM8sPPbyWZRXKTQ74ZiEoe/DMevYa4PkYrInJprIBgB/Gi4Z1DBLDckZ5FPWnW13ft276w8a3x/7k9aPoWKJOmf5bnW7t5PWnqJ2sTvT8+J2/lv6nB5xzzCwfik7m8rWmlpknCHyzcC4+8MCanv6vCDN1C6DX6zGlX9aGdTM27esj72XeRbHc7n0dkCez9XrB94Pk2UMedVivqD3ooJx1ho+e+p9G4GAW4szy8rWNcPcja2EJzwF0ysTOgfOCc3H6YiP7lQbS+pttk09lAwA7lFsngjS3snj9VJ72sWeZ1fH9sWUpqGP7TZj2MtuGTXeDur4O7UNe1L4ts5TpQ6ouZayf147P2/ZQZutvrxslUQFL/209ryGqDG4D/OP9a1lMZ68LsTNkgVm9Fmf/q1r+rxCVDADsgI+9dQRIc7N6KWyZHUSYpg1gbXk5seXA6/i9bxNylgHKrB6wul6/G76Ozfsy2rPtEV8HG/WZB6xLvJ6FcuDL8nRpb4vN6BUw49/fWfrP3vW/xbqoMphZ7lqshQdPr7dnmzGt2wA7Cxw+/vLf++7rrMrofFSCSt8C4DXGPYZ4pLkR5lkO7N7KgdcBWxyMwbYJbBpYuSXPHvF2gJWxfqrvdiM+76E9Ym3k1aPcfhZs1hZ1rA2bTpFXDrndAD8/N/yhGC39Tz/4WwCr0eH8/T2retp8h0FAtntxLvzTQ6vtp/8VAFSGqXkGgA4A5A333a5Ja8MDuXV0pMhmXj/otEDKZl49kmoTspQN2xZAnrJu7aRItUGZte2x8pQO81YHpGwRlG3Xj5KY0dL/dNPaCGHP0lz4h/tWw/kreifAToL4Gi9mes+HVrI/A8zvoph8KhUA+MGeIG9l3cYBlJfVz9Oj3JYDK8+za+UpHS9D3rdDnVR9kFeOfKrMpn1befg61raH8n6OS0ofdmw/oYO/6pc99b//prC4tDv7k79btcS0gPNdr4fsdbN//cGV7JaAAoDx057918IDpxvh/rghrYf/qkPlVgBwbfnrKyUb1rCfdy1TnuqL3Q+LQez1eix6bQv2y9YZ1nGBHWtrc+l/cXfYd+CmG3/mV0wtXAX427tXtAqwg+Anf3/1j9fjCWm/c0NUh6m5BeDpNg5Mwjgxrj6Muh1rf9zff7aXLf3H7eCRWzqOfxLOsBglOMNYBbjWWQXYvaQAYJxsxABs765a+OCDq9mLmfbsmtPsv2JULgBQgDnZjPv7j/a49L83zvyXlvZkaV0ps0G2ChAdz9/880o4c7GpXwSMETyIiWP91r+9HtO6919FKnkLQIgbcOl/V9h/8KiW/mcMjAf4+wDLqxvREV3TswBjohkDr32724HXI+ca2eqLZv/VY2pvAYhZoRUH/I3sz/y25yAahWYNLEXDGb3vvtXw/vvXwr49c5lMjAYEWPitP17F/Gfvva6gq8IoABCV5cbS/5Gwa9deLf3POPV6Lbzl3VfD2lorezZATmk04LDC6f/xe66HK8sbeviywigAEJVlY6MZFhaWwoGDN0fn39TS/wwDBwSnhD9F+0d/cy37dYCc0vDB0v/+3XPhH+5dDe+9ZyVbedFqS3VRACAqSyuOPAePHG87fjwNJmYaOKL9e+bCX39wOXsnPdJwWGI44B4/gqyLV5vh9991NbsNIKqNAgBROZJL/wWzf00Ee6PqxwuO6XfefjVzVHoxzXDAIZyLXzE8cPmmv7wSrq1M3tK/TnPvKAAQlePG0v+xzPl3W/ovKtWgsR0eL3tsuh2nfo/jsI8/HBIc0/XVVvjNP78S5uMIh023AwYDC2wH985l9/3vfmQ9W/rvd3VlVKdC3/PeUQAgKseNpX/c522/AiiPbl/84tChDWyMagDJsz3K9spij02345QKGiypz4l8mePvSdmytH+iVgv3n1oPb3r71eyetegfHM9D++bCO96/HP7iH66HAzEQwO2WbucudY5Gdc6LykCZNrvZmEb0zRCVIbX0z9k/v7z2S4y0/eL7L7jXZd7rwQY2Lwe2TlG5xerSdj/Qhm+jKO+PR8pGmXQKlNM+dbnn5yxjw+6Jzee1gT02lPN5APxO/a3vvZ7NXnUroHfg/A/E4/jPD6+FN7/zWvbSJcLjDeyhpdyfpzxSNoDN0xaxdbDZtmw9mwa23JflXVeWlAzkyScdBQCiMnDpf79b+se/2PAl5J5fSP/FTH1RWa9tbauNlD6wZdjb+raMMovVs3SrZ4Ge1bG2fF3krW2mIWcZ61gdwrS3C7ndbDnTtE9sOyxjud3bMuYtyFOHe8I0lv0RBPzRe66Ft//jchYE6KHA8jRjxITVkwdPr4df+pPLYaHevp2CQIrHmOfFnh+bBsyjDs8V69u9LWPekrJDmLY6wOZZjzJAeQq2Ybe8ulZeJRQAiMqQt/Rvv4jcg7wvpdWxaWBtoT4HAWLTLLc6tq7H1iWQeZuUWbmVeTmw7flybCzPK/N6wOaRTu1RbusAlHED1r6VEZZ3w9b3aeD7QjnuV//uO65mP107vF9BQBlwjPbvmQ8XrjYz54/jij/6A+fvjzOw5wOgnDLKKQM2XYSt79Mg1Q/idQnyVkYbXo+g3OtwX/ZzTCoKAMTE45f+Nzqzf//lJ/zC4ouZ9wVlmcXr2bxPe7s+j3RRHd+2B+XUt3VsvZQt2w7LgU17isos1OOe7QDbJvuT6gegjHLuoc+6kDFPGdPUt1DOepv7mMBC0d5dc+E33nYl/N3dq9n9bN0OyKft/OfC6QuN8LNvuRTWm62w2Pk1hT3+/pgTyixexjTqsS5kzFPGtLcHvJz1e8Xb4N6mAW2n9IFNVwUFAGLiubH0f3NoROefjegRfOFSX7rUlxJ71LIDBMsgs2lLSm71AdLYILcbYBmgDqAMUMY9sTrA2rJQzjKv4+2SlJx1UYbN5j22nVTayrrBtrwduwFbboGcfbQ6md0owB+uwa8DfvVPL4e/+sflcGhv+0VB2MQN4Pxxq+Sh0+vhDX9wKftLi/jtP56pAPZwpdLYp66VFDznFuTtBrwOyZPb9q2Obc/3MSXvpmPLWWbbqwIKAMTE04pTjxsv/Gl/xbp90VLlkOXJiS/nlzxPB2mrY7cUeWW+Xkpn2BS1YfuCz9dNd1CKbKTOQQpfjjxlDAJwO+D/vuNq+JPOg4GQaTWgfXxwHLA6gj/t+/N/dCnmW2EX/shP4pZJ0SErezipl9Ive8490M+rY+VIsw2Qai9P38qrjgIAMbHcWPo/HJY6S/+c/Y+LMl/2QQeEQeqXORo72b9hMKz24eRw+eCp9j9697Xw62+7EnYt1LIXB6Wc3KwAx49ACKsib3/fcvjFP76c/XnfxfrOHZdxXHO2jTLteZ1x9HHUVC8AGMVRH9Rmt/r92p+kK2wH+tJe+l8M+w4cDc2YHpXzH4bV8YYlN5ikS6QKIAjAhtk/fiL4hj+8lL3VDve84exQNktgyR9vS1yIzv63//Jq+L13Xs2W/OfnZ3NlZKe+xztF9QKA1Bka5EJF3VGfddpP9TOv77Zfg3y+FNYe0mXslzlGvfSzhC6e+sef+Z2bw2hUfirS6+nspdt5DMOG6J9ezzmcG15o89CZRnj9713M/nbAof1z7Z+5zcBqAJ07AqHzV5rhDb9/Mbzzg8tZIIRX/lYhEOr1nJdh1r7H1QoA7NlBmnlcCWXPHPVsXWDtAa9XhL8S8+qmrljbfgor9+lUnTw7Fn+8Uv0Ctg2bLqKMjiWpX8uW+/fsPxx27d4fB+Telv577YKoPv2cczj6vbtrodFshV9+6+XwO3EGjKXv7C/cRYPTuBqAj4RZP2594JcReD8CAqBTF5s3Hoxsq048U3h6xk41bwHwzNORYfOO1OoBm8feOkHuu/kY6gGk7QZsOUjZs/qAadt/bOwf9iyjjDBvZYD5lJwy2kxhddiGTbOc+LyF+kU6wOi0NpqhXl8M+w8day/9F3ZWiP5BEIDlbzj9v/rAcviJ372QvfUOL8DhswHTEgjgs8zHr9Lhfe1Z/8/+4cXw5ndeDfNRiNsACAzEbFG9AIDQGRGfLuMzUja4Abv3adRlG7Tj8xZbD+TlCcso9+WAOtYG8elUnjKbp4z4vIX67CehnPj+5e07eq1Wf0v/QvRDNuuNG2bAl69vhF/4f5fCb7ztcrh4rZndJshegFPhQAB9zx5+jJ8F+7e851r46d+/GO471cgeiERQMIv3+0WVAwBcsHAYHaexuQdIsxx7e3FTz8s90PM27d7Wxx7ylM1UnrZTdWgfWN08WNfaAKzj5aDIHkE9WzeVJ0h7m8in5CBXFgfaRiPs3nsoLO3ZHzaao3vwTwgPZsCY9WM14O/vWw0/8X8vhj+OzhKvxIXzxEpBVQIB9NE6ftzXxx/z+cnfuxje+rfXw3wU7N0VP0/Uq8DHESOihleqVoW557+ldfPhxXhhd/oM31C2+0W6tqwXm4PQrR2Ug246vjxPBvJs2Tqp+nkMWs/VwbU4NzcXjp64Mw5c7df9CrETwGEiIMAvBPCg3LOftDt81OOXwqF982G90Qora63MycLBTkqMim8LvzL4CR+e5l9e3Qh/d89qeOcHlsOZS82wFGWz/rPHUYGfUp6Nx/jkL981IVdEd6odAOw0PM2p7qBsHN0cVzvdGKQfnbp48O/wsdvDrr0HwkZjPcp5gIXYGTCor6+3wnJ0+FgZePIdi+GZT9wVjh+uZw8MrsaytRgQAFyt475kMXzza1ePfYVzR7/wDv/33bca3nv3Sjh9MTr+KIfzz/RZQQwVBQAjpucAoONYtpCSjZOd7NNOf/Y84qi50VzPlv4PHb21/cIfISYEzvLX42W5sraRPRNwx80L4Wl3LoXH3boQDu2dz75WWBnAlg1PcWO9YWIdPkyjL4sLeLivFq7H2f79p9ezP3p036Pr4XLnNb5w/nL8o0cBwIiZuBWAnQKX17AOwTBt9UNsH6/6zZb+j98ZanGvpX8xidChY/kctwCazVb2u3kEA4+/bTHcfrQebjown91fxxXcQEAQdbjcnl3V+AffuRu7bWxe/Z0EgwjsM4dfr2VpfE0uX2+GR841wt2PrIV7o9O/cKWZVdu1MBfq9baOvk7jQQHAiFEAMJ1o6V9UDTwjANabIaytt0Ijjkn4Xf3RGADcelM9POZYPRw+UA9H9s2FpcW5zNnzssbwhXE3G8bixuEM5dSDfSzlg8yJxz3eV3DpajP7Cd8j5xvZS4zOXGxkv1yAJv7YER5URJp1xPhQADBiFABMGXGkg8PfvY9L/9H5586LhJg86LTxTyMGA7gFgJUBDFG7l+bCnqVa9hQ+AgP8fX387G53lGEWD4cNH0+njWACYxvsrEY7yysb4eryRrgUHfyFy81w8dpG9lDf1SjHsI169fm4x+/44v+Z09fQuGMoABgxCgCmC1x7WvoX00I26sMXd4Z//IoVPyHErwmw508I4bTx8h28dhiuH44DdVCOv8CHPeogmMhWA2L5XExAH/XwsF/WWLSFb4y+NpNBFQMAXEpC7Ah441/2wp/6QvbefyGqDJ1x5sjjBueNWToexNu3ay5bCcCf290T01gBgFOn40ewACBDHawSHIy6qIO6WEnAigEm+5j/ZG3EvZy/GAQFAGL8xEEue9f/vkPt+/5Y+sdIKMSUAQedBQUdp42ZPZ02LnncAshm9nFDml8DG0hkdeOW2WoXCzEUFACIsYPZ/nznXf9YBYjDXrtAiBkDDt1uQowTBQA5pL6Mk/wFHVffbDv9tom/83/g8M1a+hdCiB1k5gOAPCeGOal3dkXz1H6d4bDI61u//So6LqTnebuW/isJTpHOkhDTx1QFAN5h+3wKO7B5HZZBjjTLU7ZsOUnpgTy5p6i9frG2utkt034vZZjtY9Z/QEv/lYKvu8WT7Lx/LYSoPlMVAHiHbaGDtuOXH8tsfbsnRe4qVcfqQ27LbJ5pW14WbycPlvE4AJv2oIz9p57XRb6bjRvgD5A0M+ePIGBDS/8TDc8dfnf+7CftDU+7a284cXRvthqAn+Fq4UaI6lOpAMA6Gqax9xvHJuwpI17GtNWxWD27t1CWGhOtPtu25JV7OYHcbiBV7rE6TEOPbdp6efVtPWBtkqSt6C2a2bv+D2TL/7gNUJMHmVh4TeDd8s958r7wuNt2h/riYjh6eCk89sS+TAGrATqFQhjil6b9SqfqUMkVAOtcUocbcm62HGkrs3uWAZ8mlOXBcuytbqqetUusHsu9LYAylmPvdVIyQJmV2zTrEatr04R52x7S2ADLs6f+5+vZb/6xCiAmF57L6ysb4blw/rfuDv9w/3r27vv19Y2wd/dCuOvW/ZmuggAhboDvDV4GVCUq1d3UWEMnk4ctR5oDHPBl3KfkFuvgfHnReNiLXQIZ+0y5T3uszNclqXog1QekrZw2Afa+HCDf3tpL//sP3xzqWvqfaHheM+f/lI7zf6ARhe1XzsLZrzcUBAiRoorPx1TuFkDZY+zHJNZL1e/1vFE/Ne5ZW0iXGRup4/sBea998+TVt/2y7af0fT+Qhsza8OVZPnqGZrMRdu3Zny39I73jS/+2o2ITnuPtzh+vn427znGrZBCgcz57jPmc4/rHS5727prkL8J2KnkLAIe422Ee9fmH/TJt9Ktj7ZexQcpeftYm0kX1Uu1DZuul6mO2j3f9Hzx8y+T83r/sAZohcEhwLrs5f5IbBGSpCUTnvDfc+a4kYz7naA6/lnnMsYW2oCJULADAldnq/HvjHG8/171cweO82tnWsAbL7X3v7dPc0O73KNz4RJaYix9wY6ORvfCnvoA/4DTie/+9fIB+P+wgDKvNQe24+rgOISrr/Mm2ICDqjT0IyOnbxDCM/sHGoHZ6rT/Wk9gjk3jOY5/wp5vxi5k7bq53hNWgkisAhNfC1msCOXsFD+OK2W6j3HfE12OtWsJit36y3OrBnpfbQThVx1LmU9i6eXYctbmw0WiGXbux9H84NBudpf+S1XsGdvlRkB5GO/3ayKuXOtTd2mC51bN2UuUpmcXURxJqvTp/siUIuC0GATHfjJVsF3umW/8tbAi63fTL2CujkyKvXupAlO0n97Bh7fhykJJZypwQayPPzqjopb1ezvkosW13+oRbAE+7c7GdqQgVDQCKzry/2vOuftpAubWXsm2vujZbU8z5ur5tq0so8234Pftpbfo8SAUXvWDbTdkHxS1guR9/3vfQTcejEzFL/77rliKT7Eoe1i7SqS4D2kC5tZeyTRupMsgo9+W+7bz6wLeRsom0tWnLSFFfc0AVqPfr/ElPtwO8zVQb7FgvoE6ywQhtlbFLGyk9K/Plvu2i+uyH3TyQWZvUsbq2r779PGx9b5M2Uu2WIU/Xy1N6aBPyXtpDnTJ9LWszpWdlvty2HcG7MfDHnF776YdcyWRT0QAAxxhnxJ+h1BnrJgPeHtNWRvLkFltu92jHt+WvF58HXpf1bd7btbIUVo8bSNWx5dhbna26cAhY+j+Ipf95s/Rv1dNVt2LL0BybtHKb92mSkgFvj2krIyk56ltsGdPY23Yop4x4W4B1CetbmbUNkKcsRUe3Fjc4+EGdP+kaBMAetry+UcY9PwdgXeLTNk8o71bmN0uenPgyq8/PyQ3Yz87Px88IqGvlVmbLkCZW15cB5r0c+DKrgzRtA1/f1qGu1cmTE8q4hx7bY12SlyaQsR1uFiv3G7B7K/fYMqOLpvGmzGMH45enYlT6FkAbngleQcwDu6cOZV4XeYvPA8qwT5UDtpOCbZFU21aWsuXLLXm6wOuClIzAVqoPVubsR1GziaX/A2HP/sPtp/631HXQhDXHDXDvoQ7qsB6xdanjdamDvMXnAWWsn8K2A6wey0ieDqANW2ZlTIM8O5R7OnKawEt+huH8ybbbAZEtQQAb5p7t5O09rEODVo9llFEHe9se5YTlHsrzygnKbJvUTbUFrMzWS+lTZstZxwIZ5dQjVk5smvYtLLft2TqE5ayf0gHUwZ46fp8H66Tq2419AEhbfVsGfB6wjt1SsIx2O3rzcep/+Vr8Pj15V1tQISocAPizxDNeFnt1sC7zfm9tQ8Y8ZcCmCWV5et4Wy3yae6YB0qwPUmXsP4GcG7E6toz7lA27J1EPS/+1uXDoSM5T/7YKzOY1kdelVFeszSK8HuvSpt97293ylpQugG1sLLd6Ps29l7E+4B4gTfsEMm4ROOlW3Ibt/EluEIA+wTb3AGlsxKahk+oL6+eVAVvm9Zi3bYG8utyIz1tSusD22W7Ap7n3MtogNo80+w9YH5uVW1i3SI86hDqsQ7wesDLUYx5p25a3mbJl63tsfeJ1mfft5tW1G/BpYuWRRjOE17/2ZttKJajwMwDY8o53ntyeQcC8vxpoP6WPrdt59vXyKKtnsW2zftnP6/WQtzZ8Ocq4AZZ7vUgUNTea7aX/emfpnyYT6lu6ZpsANk2ok7IF8uR5dqlPGe1bHdAtTyj35bZfKMurnwfq275iszJPjv3M+ceybNmfb/gbovMnXYMAgrTPeyjjZ/U69hjk2bJpbwd7boT5PNsWyn15mbpF+PrYIMPGPPF5S0pubZOUDduehfWtnLqA8pQe0j7vgYx1gdfJK8tL+35gz40wb23nYetFcF3j53+H91fTlVas1+7ob8uTlLzo7Fp96pXV70aenSL7HqvLtlMy269UH73M66fqWFju9GJX8H7/zaf+ufRPkymzvXx8S8oW6LUNq0+9fvvksXZS7aTwZcyjvv9sVmbLvF6HTefPmf9to3H+pDAI6Ie8/vXab6vfrS+92rb2yrZjy/LqE8i8vNc+grJ1fHvMp+qn5Mx3O84pUm2QorIUVr9bX3q1He1h+f/ClWZ4ybP2dITVomIBQD9XEyl7dqnX69WQR56dXuyndIfVvyGQDe5Y+j9e/oU/4+h+2TaoN6w+5dkpsu/LhtSXTec/pAf+yjL0IGDYDPtz59kraseWjeg85DKu8zDuz1XEsPsS7eHpf5j9kS8/NilXdk9UfAVA7DhxRG9mT/3fcmPpX0wEGJHwjRm38ycTHwTMMqM69zN0bvH3Mc5d2QgvevrujqR6zNAKgBg6cSTftvSv0X0iwFnIHvhbHs+yfx4KAmaM1HU1peca36H1Riv8yjcer+wnrOaTC2IyaLXf9d/T0r8YORiNMA5nzv+pO+f8iYKAGWfM19s4qM/XwumLzfDxz6ju7B/oFoDojzh6Y8a//6B56l/sOJvOH8v+cP5jXvbPQ0GAmBZwyTaarfh9qlV69g+0AiB6J47a2dL/rv1hr5b+JwacgU3nvwP3/LuhIEBUHXyFFuq18PDZRviqTzvYFlYYBQCid1rtF/4cxNL/TnsVkbHF+U/Asn8eCgJEVcmcf5z1n73cDM944lL4ms88XPmrVgGA6I04UuN1vwcOHgsLC0ta+p8Atjn/CZv5exQEiCoSfX/2zn8s///J/7ptKq5WBQCiB/jU/76wd/+R5NL/pPiaSfJ5o+wLjj7sV8X5k7wgIPtAfTJJH3VCD3tpuvV/Uj7fOPuBv/n/wOn1cPJX7poK5w8UAIgewCytFg4cuiWm8NXb/vVLfTPSmr1Txg516BhHRS+2eUzK1snTS8khq5rzJ6kgYCPOrizIdfsYLO92zrvZGSajPOfDJtUG+59HqnxYfYWdbrZY3q2fw+rTYr0W7jm5Hr7i3x7qSKYDBQCiHHG0zp76P3AsLCzuigM1lv6Lv372S4qN+bwvpZcjb2W2tTwbbAtYfY+tz3SezZS8yDZBPVu3W/8p87a93NatqvMn24KAKLB973bMgNXxxy4P2hr2YYI9a7Nb/ynz/c6Te4pspkCZL89ru8hOCtrx9a0dpL1dn08dsyKdsuTZAikZgHxpoRY+9Mh6+Pcv2he+8wtv6qfpiUUBgChBe+l/aWlv2Htg+9I/viSpL5D/IjOPPfXtnuWU2frA1yF5cpLSZx9SdayMuiSvTgr/eXw9K8fm+8Q9YZ52r1Xc+RNcSmuNZti/dyE89ta9YcN8AKb8R8qTEytn2h9fS0qfpPTz4LkBRfVQhq3sOQepNOsDKwNWHyCPslQ50l7fU1aH9v2e5LVPmPZt5clBni7aQrpMHWL1l+LM/+448/+EZ+wOP/ma6v21v24oABAlaC/9Hzxyy2ae+C8R8/wScQM2zS+m3QOfJjaNctYD3gZAnpu3Z/VtHaZZDmwaUMfKPCxLtWHtUm7L8/R9e3D+z5vAn/r1A/pcn58La+sb4dS5lSwgyOTtXQaPC2VM+2PFjfJU2tZhGnuUA5sGzFuZxZZhn7IJfBtWz5albFlZSg68Datj5RaWQZf1Wc/WJ9ShzKe5ZxrYvK1P+yCvLer7NKEtwjx1mbZ1mKYOsGkwFwX1zPmvhU981p7w2996wpqYGhQAiGLiaIwZ/75s6X/35tK//bLwm0GZLQMopw72KPe6VgZs2lLUFm1gs+0Bq1+U9jJi5dam34hNg1SeMl/P6/rPsun8J/Snfr2APuOFKvijKvc8dCVcW16Pgy8/6Y3PDPjx7MdEmhuxdYAtT6W9jNg0bVp9Ww7y8n4PkLZybLbfvj3mscfGul6PUA5sGvi6wNalLauHNPfEpkGqHa+fl7fyVL+8rtUHto/Allt9pr2M4H2m9Y5X/MADa+ELX3ow/No3V/tlP0UoABAF3Fj639dZ+uf0jF84C2T8pvhvDHS9jKR0LTaPdFG5h/q2DaS5WbwOKNtWSh8ytu/xbQOr59PUn2bnv7LaDItx9MVH4cfxe+LzwJ4DX44ybiSVB7ZuyhaBfqqdojoeq+fTtn8pPeyZph6w5XbvdbycedJNDmya5MlScgvb8fsypHTZpm03L436yGPJ/8ryRrj/9Hr4X19yU/jB/3zUqk0dCgBEAZ2n/g8XL/0zjb1Ne2y5BbKib1k/30DfDvOwVdQPQJ08iupa8mxAji2vHf95md/m/CPT4vyXo/PHkit+CQj8MSiDPwzM8zhzI8yzLVvmSZWVlQEr9zpoP/V5oed1y9i3WHlKh8cmj1R97n1dX26BDFvqc5KishR57cAO+8aNMG37jv189IRzcbvv1Hr2pr8rv/342ld86qFeu1Q5FACINGbpf3HpxtJ/P9gvYB5FOmXql8XayrObJ+93NEjVswOQx8qplzl/PPBnZ/6xcFqcPwZd+1mG+bG62SoqH/Y5T4H2U33ot21Q5vjBfpFetz7Z8jLtgV7b6wfY6WbLlmPWfzXO+u99dD284uP3h3/6mccOcugrhQIAkSB/6X+W6XeAStUrY4sDNH7qt+WBvwhmLP32ZwtFRro10EcHMuc/V+z889iJK7CPj5iRqterLeqP6nP389n6PR79MsrPju8QNsz6dy3GIOBNj6+97tXHZmqgUwAgEtxY+m9/4cf9tZ89/KiDPI565vw587+/M/OH8x/WKWFDxKa7DYW2HPW4EZuP+82Zf0z06vxBSbXK0O3wkmn73L0wqs+OF/tcvt6Z9X/C/vD+n5qdWb9FAYDYyubS/9GBl/5FeexAh6ON/Kbz9zN/PKpsYWXsuaXwcura0+tPdZE9QhvcgJXFNLL9zvynlRn+6DsGvj/4id990fEf2jfXnvV/+WzN+i0KAITBLv3flAUCWAkQ46PjL7c6f8z8o9PfMvPnacnzIpRjb3V8HlBGuU2jHd+WLQfsdA7ZzF/OX+wwuOYw63/gTCP8p391ILz3x+/glT2zKAAQBi397yT0o1vu+cP5R7Kn/bNUxDpc65yR9kOaLy/Cltt63AD3wJZBP6GTOX8+8PewnL8YP3bWfzjO+i//1uNq3/PF0/3zvrIoABBt3NJ/S0v/Y4X+c9s9/8jm0/50mtZ5Is3TZOVWliq3aQIZ5TbN+thzAzZt63XArYps5h87L+cvdgLe6+es/28169+CAgARaS/9w/Hv7Sz9IyAQ4wFHGj5x27J/JFv2z1IRf0oSTneLzJejftnTavW8TeaBTZs6EA/ywJ8Q/ZJde51ZPx7y06w/n2oFABo8RkT7wB44fDyO4fiO6ECPCx7tXOff7VT0MqTBVtlTW0bP63Ty2G3O/OX8xZjB7/ox639Qs/6uaAVgUHZ6UBuwfdzz59L/0tKe9uy/J68i+iXX+Udh0vmnznU/53+Epxd91gN/Ytzg8vKz/kua9XelWgEAR8wUlA9zoClja1iXl2+r7Ofotf0tdrH03wyLi7vDvoNH9dT/GOGlnJz5D/J63zKnr1/bXcicvx74E2MGl7xm/f1R7RWA1MBiTzvKuZXB6+VdQtamrZMn7xXUZdvevgX5MjKQkkVhK47OB45o6X+c8Ej3vexfxA6dQjl/MW5wadXxhGz8X7P+/qhWAIAzbk8tR1JAuR1wrG7eQAS5twGsHPj6tm0LbVhb3UjZYftsh2nAPPDt+Dz1gLEBh99sNMLeA0ey3/1r6X884AjjNIzE+XcYgomekPMXOwFm/ReuNMPDZxvhS19+ULP+PqhUALBleRqDCzaOqNyATaOc1SgjyPtLxtctSmPPNMt8mvi03QDsAJunbZAqt1COPetZGdisg8E6DtKLu8L+gzdH57+upf8xwNPSzfnzdPUL2/H0atfrJ21GoZy/GBe4rDDrx73+u0+uhduO1sPF33xc7btfeZMGsD6oVACA5eqswxxc7EiXOv2pQQgybsDqMA1btE27Rfok1QdLL/rQ9W1hs30DVk4ZoF6KeBxxLA9i6R+OX6P1yOHpSTl//BlSewrsacs7M93OWN6pT2FtIc2874e3iT7L+YtxgaHKzvpf++mHw1/979t7udSFo1IBQGi0wur6RpjDfR9L0SXAEQ061Ot2ybAO8QNaUZnH2kK7efpWrxvWHj+LrUtb3l6Wbz/1v3f/kbC0a1976V+z/5HC017G+ROevjJnhroJM5tYW1bPygHSqTa9DH3G97Ap5y9GDC4pzPpxbd1zcj3cfqweLsRZ/7d+3pHUpSp6oForAO94ae3ChbXQaMQgYM4MNtgznXdJWB3uLZCl6qZ0oWd1mU7pWmx5Xj+7YW0gzXwpe/GYcen/kJb+xwGOLk5R0bI/dTxejjQ3gjTPIPdWj7rWFvVAtzZ8GYg+P5v5t2LiXjl/MUI46z93uRlOXWiEb3rF4fD2H9Ksf1jUsBRcNWrP+f3WTUeWNpcfB6YzCsJS0ZXVrbwfRmGzCNz7v+mWx4bFpT3Z2/80+x8dnctqm/OHDM4/S9zYZbCOJU9GfBlgOcpS9QnLrH4e0MHXDbMxfO/ujs5/Rc5fjABcTgvxOms0W+HBM+vhGU9YCn/2fXL8w6ZatwA6YCXg3JmVbBDCwyBlxh6vw3y272Q2r66cyyz36ssrSPTN5pG2Vbfo5jZWDt8uZvrZ0j+e+tfS/8jBkcU5sM7/743zh8NE2p8nn88jVdfSix3umfZXBfLZ54kKcP5Y9pfzF6MC15qd9X/zK47I+Y+ISgYA4Ce/5SPCWQQBMV0mCPBXTzagtZPb6yaM5dnP5Hn68R+2QxXbj1SfNokVWI91CfNeTiDfahvOv7P0r6f+Rw6OLM6Bd/4g9VM/6Bedje3n8wbdyuw+Raqu1Uc58pj523v+cv5i2OBSyu71xz2e8H/8rfVw7tcfV/vazzpc9PUQA1DZAOCVn3J77f98UwwCTq1kzgz+jGNRakyCLCXHlcVBDlgdX8fXT9UhvGJRxjYstm7KDtO2npdhb+v6cuZZqqf+Rw/PSVnnD9pnp5ii8m51Pbw+QFFdfhb02T7tL+cvhg2uNc36x08lnwGwfNtP3936lh/5YDh+257sfhFhioOYhVcV5Lac6VQdS1G5t2fpJgfd6lPmdXJtRIffbKyHfQduigHAidBorGn2PyJ43Htx/pMMPg9m/nL+YlTgMrpxr78RnvH4xfBn3y/HPy4qHwCAb3n9P7e+7cc+FI7HARcXkv9E1iEC5u1Vlldu971A26yXskUdkGqnTB6kZG0wcDdDfWExHD1+Vxy0ccNEjAKem2lx/gB9lvMXowLzEDj/s5eaYWV9I3zNZx4OX/fvtNw/TqYiAADf9BP/3PofP/ZP4fhj9sRZ7vYgYBhwkAe8SvPasbqWPLllkLqAfQN66n/08LzI+QtRDtzrx2TtoTjrf7pm/TtGZZ8B8HzHlzyh9poveHx49KHroR4Hqn6vJtZL1cfYZ+WpsbBbu7ZON12U+/a61QFZG9HRN/DUv174M1JwRHG85fyF6A6GoMV4LZ2Ls/7TFxvhGz/7sJz/DjI1KwDktf/7g60feMPd4fjte8J6YzyfjU5gVPRuH4N1M8zXF8MxLf2PDDl/IcqBywfL/RiT8bv+j3nq7vCH33mrHP8OMzUrAOT7v+LDaq/5/PZKAAaucTDqsbF3+63sLW0HD98SI+54DDR6Dx05fyHKgSEIT/jjXj+e8v/OLzoq5z8hTN0KANmJlYBJAA6/kT31fyQcOnIi+wWAlv6Hi5y/EOXAvf61ddzrx6x/V/jD77pNg9EEMbUBAGgHAfd0goDpXwbHkw946G9+YaG99A+hRvCh4p3/XdH5p/6kb5WQ8xfDBnMOOP9T5xvZM1nf9NmH8Tf75fwnjKkOAMCXfNf7Wj/5q/eHE7fvDWszEARstDbCUTz1v7hbT/0PGe/8NfMXYju4178SZ/2PnGuEF33U7vCmbzuhQWhCmfoAALzyO9/X+qlfeyAGAXvC2vqUBgHR0W801sPeAzdlS/964c9wsc7/uR3nr5m/EDews/75+RAe/qW7NABNOHHomn5e//VPrX3+v31MOPnQ9bC0MKUfeWMjzM3Xs3v/GxsNOf8hIucvRDHtt/m1/17/v/jwXXL+FWEmVgDIy776Pa03v/VUOHHblK0EdGb/7df9Hs8eAlQAMBy883+8lv2F2GRz1n8hzvrj90GOv1rMxAoA+b3vfWbtpS+8JZw8uRwWF+aygX0qwMgdv4m79h7IngGQ7x8O3vnrnr8QbXC5bJn1f5hm/VVkplYAyCd+1btbf/QXZ8KtcUDHO6irftXiRT/tl/7cGdMayYdByvlr2V8IzfqniZlaASBv+cFn1Z7/0UfCI48uZ88EVHr8i99GvPRnYXEp1Obmo0Cj+aDI+QuxHVwquGaanVn/c3Svv/LM5AoA+bhXvbP15+8+H04c3x1Wq7oSEAMA3P/ff+hYOHDoZt3/HxA5fyG2w1n/yfONsBjnGQ/J8U8FM7kCQN72o/+i9vxnHQknq7wSgE7Hb+dcnP1nyUwo+kHOX4it4DLB9YK3qd7zyHp4wdN2yflPETO9AkCqvRKAwb2RPf2/d//hsNGIDksrAD0j5y/EVjjrxwt99izVwv0/f6cGliljplcASLYS8Mwj4eSplfZKQNUGyNhhvPUPrwLW2N47cv5CbIV/ue/uR9bCJzxjt5z/lKIVAMPT/+PbW+/9p8vhxLFd7ZWAKlzysZN4BmBPnP0fvulW/fGfPpHzFyLOCOPQMRf/wb3+/btr4Z6fleOfZrQCYPjb/+95tY960oFw8myFVgJiH2u1udBYX8veASDn3zvT7fwb2WxOzl90A0Ei3uF/36Nr4eXP2SPnPwNoBSDB0z7nL1rvu+9aOHFkqTIrATiPx07cFQf/epauMuj/uH7JMPXOv16NQHac57yIne7HTrS/Oes/1wgH982Ff37DY3f+RIixoBWABP/w8x9bu/XoUjh9cS0sLlRh9hT7uNEMK8tXs3cBMADgvl8GrV8W3185/95Bnzed/0OXw2q27D8c5z/K62Bc57zsZ+jWjyI7qbJej10v7SPNrSxed2E+tGf9p9bDv4qzfjn/2UIrAAXc/ql/2jp1YS0cPbgQ1uKXZMyBeU+0NjZCfXEpHL0FbwPcyL7odjDx+RTU4TVB/VTdMvaGiW3P9rPffs3CzB/5bsfCHktA/UGO7bCw7dl+2j4gD3rpV56tMqTaH8SG7Qvo1VavsJ35OONHU7jXf2jfvBz/jKIVgAIe+q0X1o7sXwjnLq1P/EpAbW4urK+uhJXrl7N3AnjsIANsGth8ahBiOfbY8gYqq+dhXY+XM23leYNkqh6wac80z/xvOP/BzzmBHjZvj1Dmy/LkALJUuU37c57SB+y7l+eR91lR39pg3sp9XfaL5ZY8mbXBNPbelk2XwdYjqTTu9a/GCc39cdb/8ufslfOfYbQCUIKjn/wnrSvLjXDkwGSvBGDmjz8JfPOJx2VfdmwcYJi2e8By4PVJqh7IswO83NYjvj7SXt/bJdT1dlP6m3bj/trqRnjeU/d3nP96LK1NjfNfXm2GRSz7d8qJPVb++FgZj6XNsx6x+ZQt4O1ZfH2kvb61a8tBkc2UnZRNQH1rz+dBSlYE9W09L8Me2HJLSp5Xz8otlN/Yt4PcOE/Iftd/OM76PyTHP/MoAChJJYKA2Cn+JPAQfxLYBTt42GshT+7ZOshsr58q83QrJ9Ym6Saz6eXVlpn5T5fzX1lrhnr8MHnHkceYx4PkHbcy0Cax9X2Zp1s5SenZdojVy0unsLaK6hXZsTZAkZ1e6dZuke0b5bUYGIYY/LbC6YuN8GnP3xfe8NW3tDstZhoFAD1QlZWAZrMRA4ATYe/+I8kgIG/ggByUGXBS6W71i7D2LHlyT5EeejW1M//OPf9uzh/0c3xteSpdZLsbqbbL2kvV7YW8dvLs5vWVsm72utUvA9sgtq631c5jxt8KczGNe/2a9QtPHAJFWc6++UW1/bvr4fzlxkQ/E4CfAl46/2hYvnYpzNcXtg0yqYEIQO7LLLYslS6q241+69q+e1i21fnjnv8UzfxXtjp/fmYLyvzxKTpuFlueSmPfzUYeqXpl7KHvVif1mVMyS147KZlvj0BmjyN1bNuU5dXPI9V/tsGNpPqHPGb9K2utcP/p9fDy5+6V8xfb0ApAH9z0yX/SurbSDIf31yd4JaAVncRGOHTTbWHP3gPZqsAwyRsUe8EOnsMmMx3NTvc9fzzwd+Nnn55hnCPLsM75aM53d7t5OoPUTTEMXchBWTsW/KYfv+1/+Gwj3HJ4Prz/p+T4RRqtAPTBuTe/qAYncukqBmB8gTsFEwX+QuBcuHju4bB8/XK2KtDPYJLHMGzBxjD7RNqDanT+K1M8889+55/v/MGwj+2wzvkoKGMXOnSslrJ1yzIMXch7sUMW43i0HINePOH/7//lfjl/UYhWAAZg3yf8cXb09u+Zz/5wRmJsmQDcSsCU/60AfDKcE/zUL3P+t83ezF/MFrgK6p2p3MNnm+H4Ec36RTm0AjAAV//4E2qN5kacaXb+2EpHPlncWAm4fu1y8pmAaWGr8983xc4//4E/MXmkVh2GCWb9V5db4eFzzfCFLz0g5y9KoxWAIVD7mD9oHdi3EHYtzoVGHKgn89vnnwloO8ZpYavzn+aZP5x/R0HMLLgE7Kz/sbfUw9/++B1y/KIntAIwBFp/+Um1y9ca2R8Oqs9N+ErA2YeztwXW64tTcydgq/Of9pl/R0HMNJz1PxSd/xd98gE5f9EXWgEYIrXn/n7r0KHF+OWc3JUAPB2M340v7jse9u47GPbtaoXY1cqy3fnvkfMXUwlOv5313xln/X8jxy8GQCsAQ6T1Vy+tXby4FtYak7cSgL7AqSyvbcQthLO/9RG1z37RvuyvgOH5hSoi5y9mCT/rl/MXg6IVgBEwaSsBOMMISJbXmuHK9WZo/flLNrv0ZT98pvVzf3Q53Hl8IfslQ1WQ8xezxqPnNesXw0UrACPArgTgz27u5PiNtuH8V+LM/6pz/uB1rz5W+9wXHwj3PVqdlQA5fzE74OfFczF4r2VP+Mv5i2GiAGBEMAhYH0MQUGQbbwVbb7bC5ctrYcM5f1KlIEDOX8wSi4uL4ezF5fDCp6yF7/tPR+X8xVBRADBCsiDgwlpoRAdcNgjwOsxbudfhqOB18JQ/bvFcOLOS9aVdkqYKQQB6hc+16fxv7Tj/lpy/mB7wncWsH3/a+/rVi+HMI/eG0LzWKRVieCgAGDGtd7y0BgfcjAN8HOc3nTT2fowvyqdcsrVhdZGO8Ub2ApJzJ1fC677hae2CLkxyELDN+WPm/0DH+c/HnT0AFUHOX6So1xey93ScP/NguHjukY40XuRCDBkFAGOg9defXDt/ZjVsxDQcM8d3OjVuwMqI1cFGHYA0oZzO/8wjy+G7/8uTw6s+7TFWrRAEAZ83YUEAP1dy5i/nL6YAO+u/euV8OPvofWHl+tXszZ3ZUp4QI0ABwJhoveultXOPrmSOGQ46k7V3pUAVDgOoZ9M2n+nB+Z+Mzv+1Tw5f+4o7WVSaH5mgIACt4/Ntcf6a+YupoX3SN2f9px/I/pQ3wB/w0kUhRokCgDHyP77yw+Os/PqWIMDDr3uq2A4FflhAHls9Ouwzjy6H//afnxi+9nN6d/5kEoKAbc5fy/5imognvTY3H+bils36T8VZ/8q1zVl/K/tPiNGhAGCMfMPn3VX7DgQBcXaOp/Ptyp53sfziU+4HgpRLXlqYC6cevB5e/Tl3hW995RNSKj2xk0EAWsNnzpz/UwZb9p+UQVTOX7Rpn3A4+ub6WjjHWX92fWz9s93j/daJWUMBwJj5xv/4uNp//7InhdMPXc9+n1/0BacTTOHli9H5n4zO/9//m9vD//6qDx/auLETQQA/97Bm/uPpdTFy/gJk9/o7s/4rl8+FM3HWv7Z6PczNd2b97oJgTpeJGAUKAHaAb/nCx9e+9oufEE49fD1zClgJyL7g+Md807eMBQUjAJz/o9HWp37SifBL//0jh+7vxhkEbHH+nPl3nH8cM5MOs+DQDIVB7aPPcv6zTvtkZ/f646z/7KkHwuULp+L1PhcDgvpmeR6TEMSK6UMBwA7x3a96Uu3rXvmEbCUA7wjIvuD4x37T89Id4EDwuuHM+X/iifCb3/n0hNZwGEcQAKsYBv3Mv9Vx/hwji4fKNtDxet3qsdzr8dOm6ts6yfIolPOfbZKz/jXO+jONTG8Tf23oWhEjQgHADvJdCAK+OAYBnZWADH7ZsU998TsyOJClxej8Ty2HFz//2EidPxllEABr+Gibzt/M/OudmT/KsfmWmUeZ3dOmhTZS0A7rUS+lz3LbxrZ+xISc/yzTPtGbs/7sXn971j/HWb+/FpBPXbhCjAAFADtMFgR0VgIWGAQAk8wGA25Rnjl/LPufWgnPeuqh8JYffLbVHimjCAJgBR/NO3/O/PF52RL3PByelCwP2vB1mPdtcg+Q9nJrS85/ttk263+0fa8/e8K/rdDeWzYvnrjhosJe14sYIQoAJgAEAdkzAQgC6FTtIIB9Z8O4kTn/c6vhiXfuDX/908/tVBgfCAKG9cZA1MZHTDn/vJk/06yLzWLLuAdIE5Z1g3WxtxvgHmyxFQvk/GeV9km29/qzWT9e8oNZPy4Ce7H4NPO8VjoyXTpiFCgAmBDwTMB/fsVdN4IADgQkjgCtjc4Df+dXM0f5T7/8fK81Nobx2mDUwsCWcv542j/6zy2HAbp5A6GVp9Lc0x7bBkzbesDWtf2wdQHrZjoxIec/m2yZ9V9ys35eHNzZCwp5Xh/+OmGZlwsxBBQATBA/+tVPrn3pZyMIWM4e7rODApKLC7VwOjr/O4/vDne/ceecPxkkCIA2PlOe86fD5CEgbAVyX2ZJldk6ttyn7Sex7ZE8fQQscP74uw93y/nPEO0TjFl/g7N+POHfebVvdgFAxV8HXubLLfaiFGJIKACYMH7sa55c+8LPuCM8+uC1bKkfYFzA8wEXrjTCLUeWwr2/9nETMxz0EwRAC5/JOv+/Tzj/FEVj5LCwbZRpL9OJ/9D53xud/4qc/0yAWT9m/NguXzyTvcO/671+0Ot1oetIjAAFABPIT33DU2uf8pIT4eTD7dsB9ehYri43s/cFnHzTCyduLtBLELDF+Xd+5w/nv5Ov9y17QPP00Gct+88a7ZOLWf/62mq23I8AYMu9/mEycd96MQ0oAJhQ3vTdz6i9/BOOh1OnVsLa2kZ0Ks2w8icvnthhoEwQACmGxU3nf9tonH+vB6lssyk9On/M/OH8NfOfAeLJhZPnrP/Mo/fHIGAlCwY6Cp29EJONAoAJ5ne+5xm1F3/MsXDpzErY+POXTPwcoCgIGJfzB+Mafun8OfOX85922icWy/tY5uesf26uPev3r/EVYtJRADDhvOUHn1Vr/c3LJt75k7wgAEPjOJz/uJDzny3a9/rr2RL/pQunswf9sPQ/tlm/risxAhQAiKFjg4DFThAg5y+qSfukwtFj1o+H/K5cOpst/2PTrF9UGQUAYiQwCLj75HpYXZfzF9UjNevHz/x0r19MCwoAxMhAEPAlLzsQPuwxe8IT45Y5/yDnLyad9glNzfrxoh/N+sW0oABAjJTv/9JjtTtP7A7vvb8Rx9Xo/Gty/mJy0axfzBIKAMRI+fzvv9Tav7sW9i5F51nRsVPOfxZon0zN+sUsoQBAjIwviM7/loNz2U8A7zxWCwf31sJas/M7fTuedhtbBx178+qXsJs5/zk5/2lGs34xqygAECMBzv/mQ21H2cQWHf8dN9XCoT0xCGjEIODGLwTz39zDcTevvAjUTdWnDEBu847M+WPmHxNy/lNI50Rq1i9mFQUAYuhsOv+Ntn+ln92I+TuOxiBgXyIIAFCyY27Kcdtym+5GShcyGwQYncz5a+Y/vcQTiT/UU4sX4cXzpzTrFzOJAgAxVOj84ez9EBpF7SAAKwG4HbDe8fFeMTX2ekeNjQGC1U/VtfVsHaad7U3nHxNy/lNGdhJr2dv8VleuhTMn7wtXL5/TrF/MJAoAxNCwzj8F/ezmSgCCAK4EtMfl9gaKxuGUHvY2TWya7QCmuYEoQ1Iz/2mFs/4QLp57NJw7/WBoNtc16xcziwIAMRS6OX8LhtncIIBjsHfQlAObhx62IlhubQBXD05+c+b/sJz/1BBPIJb65+cXwspyZ9Z/5Xx71l/D+dUJFrOJAgAxML04f4IhNxkEkLJjMvS8rg8IUA6ZDQRcPSQ1859G4qy/3v5DPRfOngznTz/gZv1CzC4KAMRA9OP8CXxrYRDQjTznnJJDlqMPJ7/p/M3MP2bHzg40OZ3YWf/1q9ms//rVC51bAJr1CwEUAIi+GcT5EwzDWRBwLBEE9BIM9Enm/PmSnx6X/UfhQobxkfvtV5l6o7Q9PPys/8F4fhvZg39CiBsoABB9MQznT+AcNvCegNQzASPEO/9V5/xtF1Jd8c56mN3t1xbqdetXkW2W5el0C1CGXa8I1OEGslm9m/Vf06xfiFwUAIieGabzJxiac1cCRgDa8zP/uln2p6vI6wLK7QbKOjm/J9ZWEUU6tg/Ug8zWyesn5CzzdUhe27YtQpmtk5cGPm9Jldn+tuJ/83HWj+jNzvp1r1+IfBQAiJ4YhfMnGOSTKwFDJpv5d+7532ucPyeI2N1wLO0tD+uEgNX3e+hZW7YNT8omN5InJ9a+tQeo7/eAad8HAJnVBcjbtmy5L0uliS3jnhvKbB4bwKxe9/qF6A8FAKI0+MM+o3L+BMP1KFcCMudvZv7LnWX/TY8Ssc6mG9SjrndiJJXnxjq2rtWH3G+2HFiZLfMy7LFBH7Ae89QD1LV4XZ8vgm0Rpu3ey1LcaK8964eTv6h7/UL0jAIAUQrM/G+Jzh+v9x01GPxHsRLgnb9d9keb2LyTItbJpcpBSm5lRfVsmW8rtXmsjJ/B69m8L0/p237Y48K97yfyvg5gOTbAvYf1WS8PP+s/q1m/EH2hAEB0xc78xzW0op1hrgTkOX/rK2A+7/OV/dzQK9PNPB32od+Pirp5fbU2mS76XLbM9ynVjpf58hRe39sgN2Q3nvDXrF+IwVAAIArhzH+Uy/55YNDPVgIGDAK888eyv3f+IOV4LN3KCfV67SrqsW4/Nrrp2v7bdIpUue9TH6cil5StLbJ4sjZn/deuxFn/vZr1CzEgCgBELnzgr9dl/2EOxWh6kCAg5fzH9YY/34TtdtnmU3p5H38MHymD7RS1V+YUUafM55mLM3w4+QtnHg7nzzwUz+dGJhNC9I8CAJHEPu3fq2MpM/iXAe3CFoKAZh9BwLCd/6Cfq89mt9GPnWGdk7L4Pqbapw72yc8UT1R71l+Ps/7L4cwj94bla5eyPOT2ROba6FBUNolUrb+imigAENvIe9qfg1LRYFt24PI2fD3krdNAvpcgYNjOHwxQdcfZ6b730z7u629sNMP50w/Fmf9D8dxtn/XTLi4FXg62LVuOdJl+pHRSNvNItePrp3QI5L30V4h+UQAgtvBFP3Djnj8HHz8IWb9bNEDZ+t6WtQHs4I3NliONDfIyQcAonL8YD3zCH/f2r129mP2uf/n6lc69/lpWztOYOp2Q8VrxevZSsWVW15Inp30LdbGh3PfBts1yK8vTFWKUKAAQm3znr1xr1ebi4BtHIA5kAHsOToBlVgasnGXc0xYpo8u8BbKiIEDOv9rYWf/Fs49kJzT7rX8sw5a6NlhmywHSXh95W9fqE+rY+lbP1rd2uXlZCm/D6pWpL8QwUAAgNvn6f7e39tTH1MOZS61Qn+8IHRyc7ABmSckxiEFu61IGUoOc1fV6yNsgYD0GAXPxSpbzryZ21n+9M+tfibN+PPHPWT+w10weKMfmry/mWUZsnuWEebsBWx+kdFJpuwGf9numhRgVCgDEFl7zaXtqT7mjHs7GIGA+BgF+IOJg6gdBkCdLDWRW5tvI08fGNrY8GLivFq4ut8Ligpx/FUnN+rPf+mf/3cCm865BQl3suVHflqWwuh7aAr4+6xT1Kw/USdXP66MQw0ABgNjGa00Q4FcCOADagSklIykZ6GeQBLTH+s0YCRzdH8LjT8yHMxeb4f6Tcv5VgLN+PNHvZ/3ZPZ2ck8fzjtKURtF1ZfWhxy1lJ916PtaOrVtkx/YVeqn6QowSBQAiCYKAp+YEAcNgGIMclv3PXtoIP/SlB2o//uX7a0+/sxn+6aHVsGdpvj/nb0dhMRo6x5ez/nN4wj/O+hEQtO/1F5+Abqen7OmDHrdeYeBg6cdOP3WEGCYKAEQuuB0wrCDAD5iDMh+v3DPR+f/Maw9umv6hVx2tfcFLDoZ7H10PC/WOmKNsmdE2NbKPAt8n27cy/RyUQdvrs4/ZrB8PmbpZf93d65900Mtq9FSIYhQAiEKGFQQMc8Ck8//p19xw/uR1rz5W+7wXHwj3MQgYhkMv6nyqzHsIr1PUp1RZkS0Py1N6KZltr586xOr5OsjHDX+bf/N3/T3M+meJYVyuQpRFAYDoyjBXAgalyPmTLUHAfFTrxb90nNUmSLMlX5YH9LF106dd7kGZNlLllLFd376tY9uzsA6x6TyoY20yHcvas/65bNZ/9cqF3Cf8RRsdDTFOFACIUkxCEFDG+ZPNIOBUDAIWOup+dEWeMpsmPk+oy3K/B0ijWW6AdVIb4B7YMtRnGW0BlgOrA1iP+kzbOt1gXeBtE2uTG+js4eibzUY4d/qBcPHcyczh4wn/G4pCiJ2iVqUI/Ft+7lJrzy7MGjqCHWKt0Qr/7bO7O6Fp5Ad+43rrfQ80wtH48RvNjnAM9OL8LV/2w2daP/tHl8OdtyyE9XjeMui0Utgy31KqDvX9vghvl/j6ebbKyFPp1B7YNLF1ga0HbBqYPJb05+bm4wx/Lly7eiFcvnA6fmc3okyOv1fq87Vw5vxa+NxPvjX87Dc/zZ8lIQaiUisA+/bUwv7dO7vt6+xnlZ1YCejX+YNtzwQA74PyrEKPm8Xq9+PPrF27Ae49vbZpdZBGfd+Gt4M8N+izzZQ+dUhW1lbAQ33NxvrmrB9quAWw1YAQYqepVACAP0u7EceQndyw+oD9LDPOIGAQ50+SQYDFns+8c1tGB3S7Nsp+CuiVbZP00y/KfTny3PIwZZj11+KsHzP/K5fPhTOP3htWV651/V2/EGLnqFQAICaHcQQBw3D+5HVfEYOATywIAgalrH+bOj/Y/kDtWf9aOBtn/ZcunMqW/zXrF2KyUQAg+gZBQN4bAwdlmM6fbHkwkEHACGKBoTAKv1n0WVHW47HYnPXPc9Z/f1hbvZ793K+tIOcvxCSjAEAMRNFrg/tlFM6fZCsB9naAfFQbHIfSx6KtuDnrP8VZf/slP/ppnxDVQAGAGJhhBgGjdP4kWwkY5e2ASSXll3ud9UfnvvVev2b9QlQVBQBiKAwjCBiH8yczGwR4ep31R0ffXLf3+jXrF6KqKAAQQ2OQIGCczp90/XWAyNj2hP8pzfqFmAYUAIih0k8QsBPOn2x7JkAYOrN+3Ov3s/45zfqFqDoKAMTQ6SUI2EnnTxQEbAfOHTP+ubm59Ky//L0DIcSEogBAjIQyQcAkOH8y8vcEVIbOrD86+vX1VT3hL8QUowBAjIyiIGCSnD+Z9QcDb8z658PlS2fbT/ivLetev2cnDoMWpsQIUAAgRkoqCJhE509mMwgws/41zPrvD5cvng5zeJtfr/f6varNp9Ip/ZRskihzWQyrzzwek3YMxFSgAECMHBsELNYn1/mTWfp1QHvWX89e3Xvpwun2vX7M+rN3+Gca251PUZ6HizLkvT6g3Jcjn7LhsXVS9gnKuAG/T2H1e8XW9fs8bB1Lt3pCDIgCADEWEAR8xJ318KFHmhPt/Mn0PxjY9i6Y9a+tLoezj94Xrlw6mz30t23W380Bo7ybs0qV0661n9LLq0u5r283gHLflq2TImWTMG3lTNt6KRvU9+T1p1s/hRgABQBibHzlp+6pvfEbDlVmSJvWIMDP+rHk32ispe/1M2n3PBRIc4PM6nDPMkIZtxRWzrTVz6tnQZu+nx4v83pM2/4Dm/dp1Cmjz7bYhk8Db0eIIaMAQIgCpisIaHuW7bP++exFP9msn84H2DRA3jsz69C4t3KrT6wM+txIqi7TtA+wt/V8OqVLHbu3ct+OLbNpQhl1uSc27e0RtmlJ6QkxZBQACNGFqQgCepn1A37MlENjnmmrC6ycaeLtpWAdq+fTttymAfsBIGebtn95lNGDnGVe18q9LA9vS4gxoQBAiBJUNwhoe5f5olk/8B+prPMC/eiCvDYtVqfbYWd5Xj/K9A9064cFuqmyvLaKPkPZ/gkxJBQACFESBgH3nFwPc92c0STQy6w/6XwSwsLP7fS7ObRu5aCMDsnT3ZTnKAx6Lsv2EXpFuuiHL8/y3SoK0R8KAIToAQQBX/zJB8OVlVp0rB3hpNFx7MlZf83M+jfJczCJD1joh7odkLx2UiT0NkVdbOR2I1UQbeXaNfkuTZaji5FU8WaXux1bIXpHAYAQPfKDrzpaO7C4HBobcKgd4cQQZ/3zbta/vnpj1p95Ge9p8CHKfpBUfZtPlXkZKbJj+0M5976vkHPDjnopjF6GtVXUpsXbGJRh2hKiPAoAhOiRf/nl72r94wfvDa31K9kS+/YZ9Q6APsRoZH5+IayuXg9nHr03zvrPxP7NmXv93PIcqMfLbF1bZmW+HHnKuLd4OzZPfH2vY8ttHyyp/gDIrT2vh82Wg5SNfmDbtOXtxPzmteXLhBgcBQBC9MALXvWu1p++/Vw4dngpnDn1ULh+7XI2u97RICC2nc36438Xzz8azj16f/bne9uzfuuoPOgzNuvQKKMcMA+4J7YM+j7NvJUD5JFmHlCH+PrcrA2WezuU23LK88qIT/v2uAHuiZX7zcK8te37wTIhRoMCACFK8oJXvbP1tneeDcdv3RUazVacbc+HC2ce3rkgILaHv9KHe/3ZrP/kveHq5XMxGHBP+Oc6IOt8uKeMzsjW8w6J+l7X1yOU2zIroy1AHdomPg983tvAnuk8+5QTlgObhp7V9fVIkY63zXxqz7p57QjRPwoAhCgBZv5ve+e5cPzE7rCyvtGR4k/kzoULZ3diJaA960d7F8+dDOdOxVl/0zzhn3QiAGnKbF+tPvfQ4QasPrEy6oFu9VDm6yLPjfWZJqzDPbH1fB1Lqh73tox2SErPl2NjPZbl2QF5fUzJbT0hhoMCACG60Hb+cebfcf43hmcMyjEIiLPtsQUBsN2517+yfDW713/1yvmCJ/yBlbX7fGOf54RIyp4nr03KbTvc2zqQeRu2vi8D3p636+uwHNj0sEn11eP7akEZ5HmfQ4jhoQBAiAI2l/23OX+CAXo8QUAr/odZP5q8EGf9508/GDaazcSsvxvUw76ojtXzpJxoni3bDveDOmFvj/s8UG4db7f2u9kjZfUsRXX6sSdEf8xOAOC/V/qeiS60nf+NZf+tLsPm2hfTliBgYXF4QUBn1o8/0due9d8TrmHWj3v9tbmRBBvdGbRNW39c/fdt8hwWBQNldIoo+mz92hRiOFQvAMj7PkHey3et1++etV3UjpgKip0/SF8E+NkdgoCrl8+H+fpi9pBerw56y6UW626d9T8QZ/2NPmb9Yjs8dkXHsIxOv5S1OYq2hahiAOBHYvvdYFnq+wKZl9t8tzqwndIRU0d3519E+3bApXOPhItnH84m73hKHzAQKLqMUJZdalGXT/i33+Z3b2fW337Jz87M+oUQ00Q1VwC4AY7O1kEzzTz3wKZZ18qIr8M89qwnpo7BnP8N5uYXwrWrF8KZk/eE61cvhdrcXObM4dSzyzM6cG7xn3Y6/ocy6m5E2eULp7K3+TWb62bWL4QQg1OtAIBOOBsl48Y8oczKkaa+xeqwzNdlPZZbPTF1DMv5t2llDntjo5ndEjj76P3ZbYFms5HN4OHgudWYjkFDLIwz/pVw6fyj4WwMHq5m7/Cfi+K8J/yFEKI/qhUA2BGZYyGdNjfidW0Z05Qzbx080r5cTC3Ddf5t4LCzZfzo2BtrK+Hy+ZPZy3rOnX4gXDz3SLhy8Uz24p5rccNM/8LZh7M/3IPf9EO2sbER5mJg0LHW2QshxHCo3i2AsnQbLzHC+1EedYpGfo3BU8konP9WYiAQZ/G4LYCAYH11OVy/ciEGAKczx48NM/3lq5dCs7GWzfizlYGoi9sDQggxCqp5CwD0OkqnnH1qbKVM4+5MQOd/y8icv6V9UeE1vXDwmN3jjwllG24B1NsP+AEt9wshRk01bwFgbOx1fBzGeDpa7yDGzMcZ5786cudvufHw3+bFHNOjcPrDtzhZ9Pr5pv14CNEL1V0BGJR+RnuNHlMDZv5/3ln2Tzn/Xk41dbHv9xLx9fq1A2xd+7msHOlB2ugF367de2x5no6l169x0Xku0x7ptZ8WW9fSqx0hBmV6nwHohr5tM0u3ZX9cGpTlDdaEutx7W/1Cm6RbPyx5ffDysn1Fm6l2y/QFOrYdm07VZzn2Xtfr2zzTKVkRaAN62NheypbFlvt+WvLq5+mzLySvvhDDYnYDADGTcNnfzvy7DbS+3Obz6kNm5SkdQHm3wZ9OI6XnN2LzVg5ox5ZbHeaxQZftA+pRZnWBTQNfnsKXMW/ltg+ebv0jvh2QspvSI3n63IqwOrBj9bvVFWLYKAAQMwOX/e3MH4Mu93ZgtjBPHT9wA6tjsTZZ324klfZ1LDbPtm0fsCFPG7aM2HLCuoB1LCzzdrj3tgDb8Vh9prkBu7f1qePrYCNe5svsPgXby7MBbJ9sGkC3qH+AOsCWpXSFGAUKAMRM8IIva8/8b+44f8BB1g7EgAMw5alym0+B8m46BPZIXpr9sG3bcsC8LU/p2z3Tvq8+b3UJZV7u6wKvY8mzYe1Qx+ql6nDfrQ9IQ8fLmLdyQpt5dWy5t+1hma2foqhMiEFRACCmno/5kne03vYXZ8KJ23aH1bXip/054HodL/cDt80XlRFvv6hPwNuz2Ly1k9dX4Osgj32qH0VlFtpM2SZI014RrEM9r58nB7a9MhS1hTQ29hsby207RWXE2gU+X0TKnhCDogBATD1f+Cm3hbA0H64tN8P8fHrY9QNs3oDby0BcpFumvV4cBHSxwQ5tFbWfwtf19W2e7XXD2yAp+8DbpI7XTcnz0nmU1SmjR4p0fVlKN++YljnWQvSKAgAx9bzyU26vtd7x0trl82uh0WiFubnatsE3b4DtNvh3K+8H9qWMbavbb1/K1PM6g7RXhLU5CvtFsL1u7Y6yX952L9eCEL2iAEDMDK2//uQYBKyGRrMV5mMQYBl0gM0LIPqhl74M2zEM83NMO+M4VnL8YpQoABAzRRYEnEsHAYMwLQP1KD/HtAUXcs6i6igAEDMHg4D1GATgdoAYD3KYQkwWCgDETDKqlQAhhKgKCgDEzGJXAhAEaIYqhJglFACImcYGAXUFAUKIGUIBgJh5siDgvIIAIcRsoQBAiEjrXQoChBCzhQIAITooCBBCzBKVCgDsgOwH59Rg3e8AroF/dvFBgBBCTCuVXQFIDc3ecVOnjEPvpqOgYHawQYB+IiiEmFam4hYAnLN19t5Z2yGcZV4POswX2UrJxPSRBQH4dUDnbwcIIcS0UckAwDpgprHHMM2NjtqWA5ZxSPfl2HOzOkwDmxbTC38dwD8gJIQQ00SlAgAMwd5RWyhLybn3ZYAyDvHcp3RBnlxMHwoChBDTSmUfAsyj2xCNcmxFgQD23g5kZdoX04eCACHENDIVzwBYUk7aDtkpR54a0uXshUVBgBBi2pi6AMCDobqbM0c59DSsiyIUBAghpompDwDKzuShp1m/6IaCACHEtDD1AYAQw0ZBgBBiGlAAIEQfKAgQQlQdBQBC9MlmEKA3BgohKogCACEGIAsC8MbAThCg50iEEFVBAYAQA2KDAP0VQSFEVVAA0Ada7BUeBQFCiKqhAKAPajWFAGI7m0FAY0qCAHyAKnwIRVtC9EWt1arOt+e7f/Vya8+uOLBOQJcx06vQoRsLeA7uynIrfMsrDs50hFR79ptbB44shYV6LXtAcDNexPXSz5Gx9crYGEY73ei3jX4oamuc/QC9ttdP/0yd+nwtnI1B5ef8q9vCz33zR4zzk4oZQCsAfbIQv5iLcYDXtn2bdfjrgGwlIF4nXQNFX+7zOKSU2cMLGeU2bfXz9il6OXVe19pF2rdT1G5ZUjaK+mEp2z70vO4gdVN0a4OfqYwtIQZAAYAQI6BUENDNEfQCnIZ1ht4xAti2zoVt5bVJnVR5qoxp9sWW2byvZ2GZ3QD2tu955OlQ7smzZeW2rk1Dh3rYo8yXe6hHaMPKgK+bsiXEgCgAEGJEbAkC7DMBHPQBnYYd4Jm3W54MG/BlgHuLLScpG8S2QXx95PN0vC6x+mV1UW51bZ5Qhjq23KYB017PYuV5aeDTvhx4Gdu1UIfylI4QQ0QBgBAjZDMIwK8D5uOInjfoW6wDwAYgYxrYdJ4+QN7bB7a+x9dJpW1bFpT79igra9dj9VKgnFsRtE09W8e2m+qDrYt0Sj/VPsq8PNWuzwPImLdyIYaEAgAhRoxdCSj92mDvGIBPcwPQt3ni894u62BLdc3rEV/HluXh67PPxOeB7xPyXgaszNthGntvn7DM1rU2fb08O6hj6/WC7zdgPq89IQZAAYAQY4BBAH4VsBkEeEdhB3mkbb6bYynrIIr0WFbWFuhF1+PrpmzlyfKOHeSpOiTvGPL4Wtu0Y2XUIT5fVEYbFmvb6gLIU3WEGBIKAIQYE1kQcM78ASE/4BcB3V70yzJqB9OL/SJdX2aPhS3rdoxYnrLHspSNvLJedPPI04O8rA0h+kABgBBjpPXuzkpAL7cD+iVlvsiR5jFIN/Psp2wW9YVlKZ0yn8FTtl+DfHZP2X4Os00hClAAIMSY2QwC7O2AUTBqZzkIo7A5DHy/OvmxdndSj42YOhQACLEDZEGAuR0waWO+fNBWNCkX04gCACF2CHs7oMyfEvblo3TS/Tq8fvs0ys9SVdubjKURMYsoABBiB+klCLBOGXopJ93NV4zSl6Rsl2nPfxbkWc/vPXnycTGKlYFtn3kUjQgRUQAgxA5TNgiAnGV5PqHIV2xzLAlsG6RIH9hy3z7z3WwA6qBO6nOkbEAP8iL73laRLm1ZnTLpbvRSz/a3lzaE6BUFAEJMAPbBQB8EMG0dY5FjQBk34Ot7B2N1gS0HPg9snVQ5SNm0shQs97ZtGyjztrHl2U7pA8p9PWsPm7edlyasx82S0k9BPfZViFGgAECICYEPBuK1wTYI6OawgC2jA2M9Xx9wT6hDqOs3wL0FslQ7HuhYO3l6Hqtn+2ptedukSJ8b5Uzb+tQlTFsZsfVYzvrcMw2w5wa4t3WFGBUKAISYIBAEXMGvA0wQ4J0CoBNJlTNvyylLYW0xbYHM26aM9YBNA1tuN0KbAHLfht2zPZBX7oGcG6Ce1bflFtse69j6xJal5IB2LHl2CNKQpeoKMSwUAAgxYfiVANLNQbC8yGmgzNoBtp4vA5Cl5MT3w5InT9lEnra4USelT2wbrGNlgPkie1bGtO0DsbJUGbBypIvywJfbPRJeX4hhoABAiAmEKwH+doAnJYcMm3eCwOrbdMrRFcE2gE1b8uSpfhHWyaubJ/N1vJ7PE9uXbseL5NkCRWWgWzlhXzL9+M+R/QtZXohhogBAiAmlWxAwLGcDetEdlHG21Q3blzL9SukXBTSWsnpgS182WuH2m5c6GSGGhwIAISYYGwTUO0FAL45EjJ4ygQMoq2ep4WQ3WuFrX3GXTrsYOgoAhJhwfBCw0ZGL6QbOf3W9FZYOL3YkQgwXBQBCVIDUSoCYbuZiBHB9uRked+vujkSI4aIAQIiKoCBgtpiLo3NzuRFe/rHHOhIhhosCACEqhA8CxHSCM7veiCHe4lz4nlc9SSdajAQFAEJUDBsE4E8Ji+mjXq+FSxfWwmd8/PGORIjhowBAiArCIAB/QEhBwPTRjMEdeON3fJROrhgZCgCEqChZEND5K4IKAqaDVvT7S4tz4cKplfAF//YxHakQo0EBgBAVRkHA9ADnv7hQC6fPr4U7Hrcv/PTXP1UnVIwUBQBCVBwFAdWHzv/StUa2AnD/r79AJ1KMHAUAQkwBCgKqDZz++cuN7N7/yp+8WCdQjAUFAEJMCQoCqkd9vpZtZ04uhyMH6qH5tpfoxImxoQBAiCnCBgH2TwmLyQBnBOdloV7LgrRzF9fCuUeXw2e+7NZw5ndfpBMmxkqthZtPFeF73ni5tWdXLbtfJiYP+Jsry63wXz/rgAayHab2rDe39h1ZDEsLc/hjcmICwFi7sRHCteVmaF5vxOl/LXz0RxwO73z9c/R9ETtCpQKAb/m5S629CgAmFvzxEgQA3/55BzWgTQAIAuBkshOjL83Ogm9EjJDn63PhKXfuDS965pHwQ1/14fqeiB2lUgGAEEIIIYaDngEQQgghZhAFAEIIIcQMogBACCGEmEEUAAghhBAziAIAIYQQYgZRACCEEELMIAoAhBBCiBlEAYAQQggxgygAEEIIIWYQBQBCCCHEDKIAQAghhJhBFAAIIYQQM4gCACGEEGIGUQAghBBCzCAKAIQQQogZRAGAEEIIMYMoABBCCCFmEAUAQgghxAyiAEAIIYSYQRQACCGEEDOIAgAhhBBiBlEAIIQQQswgCgCEEEKIGUQBgBBCCDGDKAAQQgghZhAFAEIIIcQMogBACCGEmEEUAAghhBAziAIAIYQQYgZRACCEEELMIAoAhBBCiBlEAYAQQggxgygAEEIIIWYQBQBCCCHEDKIAQAghhJhBFAAIIYQQM4gCACGEEGIGUQAghBBCzCAKAIQQQogZRAGAEEIIMYMoABBCCCFmEAUAQgghxMwRwv8P/UQtGpWIPZ4AAAAASUVORK5CYII=;" parent="1" vertex="1">
                    <mxGeometry x="85" y="282" width="80" height="80" as="geometry"/>
                </mxCell>
                <mxCell id="19" style="edgeStyle=orthogonalEdgeStyle;rounded=0;orthogonalLoop=1;jettySize=auto;html=1;entryX=1;entryY=0.5;entryDx=0;entryDy=0;strokeColor=#FF9933;fontColor=#FF9933;" parent="1" source="7" target="5" edge="1">
                    <mxGeometry relative="1" as="geometry"/>
                </mxCell>
                <mxCell id="20" value="Store flows" style="edgeLabel;html=1;align=center;verticalAlign=middle;resizable=0;points=[];fontColor=#FF9933;" parent="19" vertex="1" connectable="0">
                    <mxGeometry x="-0.3021" y="-2" relative="1" as="geometry">
                        <mxPoint as="offset"/>
                    </mxGeometry>
                </mxCell>
                <mxCell id="7" value="Node-Red Container" style="rounded=0;whiteSpace=wrap;html=1;" parent="1" vertex="1">
                    <mxGeometry x="395" y="122" width="120" height="60" as="geometry"/>
                </mxCell>
                <mxCell id="8" value="Azure Storage Account" style="rounded=0;whiteSpace=wrap;html=1;verticalAlign=top;" parent="1" vertex="1">
                    <mxGeometry x="377.5" y="232" width="155" height="140" as="geometry"/>
                </mxCell>
                <mxCell id="9" value="Azure Storage Share" style="rounded=0;whiteSpace=wrap;html=1;" parent="1" vertex="1">
                    <mxGeometry x="395" y="282" width="120" height="60" as="geometry"/>
                </mxCell>
                <mxCell id="10" style="edgeStyle=orthogonalEdgeStyle;rounded=0;orthogonalLoop=1;jettySize=auto;html=1;strokeColor=#FF9933;fontColor=#FF9933;" parent="1" source="7" target="9" edge="1">
                    <mxGeometry relative="1" as="geometry"/>
                </mxCell>
                <mxCell id="11" value="get data for processing" style="edgeLabel;html=1;align=center;verticalAlign=middle;resizable=0;points=[];fontColor=#FF9933;" parent="10" vertex="1" connectable="0">
                    <mxGeometry x="-0.38" y="-1" relative="1" as="geometry">
                        <mxPoint as="offset"/>
                    </mxGeometry>
                </mxCell>
                <mxCell id="15" style="edgeStyle=orthogonalEdgeStyle;rounded=0;orthogonalLoop=1;jettySize=auto;html=1;entryX=1;entryY=0.75;entryDx=0;entryDy=0;strokeColor=#FF9933;fontColor=#FF9933;" parent="1" source="14" target="7" edge="1">
                    <mxGeometry relative="1" as="geometry">
                        <Array as="points">
                            <mxPoint x="720" y="234"/>
                            <mxPoint x="720" y="167"/>
                        </Array>
                        <mxPoint x="740" y="152" as="targetPoint"/>
                    </mxGeometry>
                </mxCell>
                <mxCell id="16" value="Access via web browser" style="edgeLabel;html=1;align=center;verticalAlign=middle;resizable=0;points=[];fontColor=#FF9933;" parent="15" vertex="1" connectable="0">
                    <mxGeometry x="-0.1102" y="-2" relative="1" as="geometry">
                        <mxPoint as="offset"/>
                    </mxGeometry>
                </mxCell>
                <mxCell id="17" style="edgeStyle=orthogonalEdgeStyle;rounded=0;orthogonalLoop=1;jettySize=auto;html=1;entryX=1;entryY=0.5;entryDx=0;entryDy=0;strokeColor=#FF9933;fontColor=#FF9933;" parent="1" source="14" target="9" edge="1">
                    <mxGeometry relative="1" as="geometry">
                        <Array as="points">
                            <mxPoint x="720" y="234"/>
                            <mxPoint x="720" y="312"/>
                        </Array>
                    </mxGeometry>
                </mxCell>
                <mxCell id="18" value="Access via Azure Storage Explorer" style="edgeLabel;html=1;align=center;verticalAlign=middle;resizable=0;points=[];fontColor=#FF9933;" parent="17" vertex="1" connectable="0">
                    <mxGeometry x="-0.0792" y="-2" relative="1" as="geometry">
                        <mxPoint as="offset"/>
                    </mxGeometry>
                </mxCell>
                <mxCell id="14" value="" style="sketch=0;aspect=fixed;pointerEvents=1;shadow=0;dashed=0;html=1;strokeColor=#d79b00;labelPosition=center;verticalLabelPosition=bottom;verticalAlign=top;align=center;fillColor=#ffe6cc;shape=mxgraph.azure.laptop" parent="1" vertex="1">
                    <mxGeometry x="740" y="204" width="100" height="60" as="geometry"/>
                </mxCell>
                <mxCell id="30" value="Azure Storage Account" style="rounded=0;whiteSpace=wrap;html=1;verticalAlign=top;" parent="1" vertex="1">
                    <mxGeometry x="370" y="552" width="155" height="140" as="geometry"/>
                </mxCell>
                <mxCell id="32" value="Terraform Statefile" style="edgeStyle=orthogonalEdgeStyle;rounded=0;orthogonalLoop=1;jettySize=auto;html=1;exitX=0;exitY=0.5;exitDx=0;exitDy=0;entryX=0.25;entryY=1;entryDx=0;entryDy=0;strokeColor=#3333FF;fontColor=#3333FF;" parent="1" source="31" target="6" edge="1">
                    <mxGeometry x="-0.0009" relative="1" as="geometry">
                        <mxPoint as="offset"/>
                    </mxGeometry>
                </mxCell>
                <mxCell id="31" value="Azure Storage Share" style="rounded=0;whiteSpace=wrap;html=1;" parent="1" vertex="1">
                    <mxGeometry x="387.5" y="602" width="120" height="60" as="geometry"/>
                </mxCell>
            </root>
        </mxGraphModel>
    </diagram>
</mxfile>